<svg width="600" height="600" viewBox="0 0 417 388" fill="none" xmlns="http://www.w3.org/2000/svg">
<g opacity="0.15" filter="url(#filter0_f_463_33551)">
<rect width="276.903" height="166.492" rx="14.7546" transform="matrix(0.866044 0.499967 -0.866044 0.499967 160.312 146.902)" fill="#101828"/>
</g>
<g filter="url(#filter1_d_463_33551)">
<g clip-path="url(#clip0_463_33551)">
<path d="M145.132 108.45C153.514 103.61 167.105 103.61 175.487 108.449L384.942 229.368C393.325 234.207 393.324 242.053 384.942 246.892L271.108 312.608C262.726 317.448 249.135 317.448 240.752 312.608L31.2977 191.69C22.9152 186.851 22.9152 179.005 31.2977 174.166L145.132 108.45Z" fill="url(#paint0_linear_463_33551)"/>
<path d="M243.029 275.369C244.705 274.401 247.424 274.401 249.1 275.369L277.432 291.725C279.109 292.693 279.109 294.262 277.432 295.23L259.219 305.745C257.542 306.712 254.824 306.712 253.147 305.745L224.815 289.389C223.139 288.421 223.139 286.852 224.815 285.884L243.029 275.369Z" fill="white" fill-opacity="0.1"/>
<path d="M262.809 289.159C266.598 291.347 266.634 294.872 262.89 297.034C259.146 299.195 253.039 299.174 249.25 296.987C247.551 296.006 246.609 294.756 246.422 293.48C244.213 293.372 242.048 292.829 240.349 291.849C236.56 289.661 236.523 286.135 240.267 283.974C244.012 281.812 250.119 281.833 253.908 284.021C255.607 285.001 256.549 286.251 256.737 287.526C258.945 287.634 261.11 288.179 262.809 289.159Z" fill="#ED0006"/>
<path d="M262.809 289.159C266.598 291.347 266.635 294.873 262.891 297.034C259.147 299.196 253.039 299.174 249.25 296.987C247.551 296.006 246.61 294.756 246.422 293.481C249.14 293.614 251.925 293.088 253.99 291.896C256.056 290.703 256.968 289.095 256.737 287.526C258.946 287.634 261.11 288.179 262.809 289.159Z" fill="#F9A000"/>
<path d="M256.736 287.526C256.967 289.095 256.055 290.703 253.99 291.895C251.924 293.088 249.14 293.614 246.422 293.481C246.191 291.912 247.103 290.305 249.169 289.112C251.234 287.92 254.018 287.393 256.736 287.526Z" fill="#FF5E00"/>
<path d="M46.4828 182.16L53.8289 177.919L51.1818 177.547L52.5964 176.73L55.2252 177.113L56.5184 177.859L47.7759 182.906L46.4828 182.16ZM51.666 185.145L52.8013 184.496L60.0199 184.724C60.5987 184.745 61.0662 184.716 61.4223 184.637C61.7826 184.559 62.0861 184.45 62.333 184.307C62.6447 184.127 62.8551 183.926 62.9644 183.704C63.0777 183.48 63.0858 183.256 62.9887 183.031C62.8916 182.807 62.6851 182.604 62.3694 182.422C62.0456 182.235 61.6794 182.112 61.2706 182.054C60.8699 181.995 60.4732 181.997 60.0806 182.061C59.688 182.124 59.348 182.24 59.0607 182.411L57.7614 181.661C58.3281 181.334 58.9514 181.121 59.6313 181.023C60.3194 180.925 61.0075 180.937 61.6955 181.058C62.3877 181.177 63.0231 181.404 63.6019 181.738C64.1523 182.056 64.5206 182.413 64.7068 182.811C64.8971 183.205 64.9011 183.6 64.719 183.995C64.5409 184.392 64.1746 184.751 63.6201 185.071C63.2194 185.303 62.8268 185.468 62.4423 185.569C62.0578 185.669 61.6409 185.728 61.1916 185.744C60.7424 185.76 60.2203 185.758 59.6253 185.737L54.0641 185.555L54.2887 185.264L58.7875 187.861L57.5793 188.559L51.666 185.145ZM63.1334 191.961C62.7003 191.711 62.3745 191.43 62.1559 191.117C61.9414 190.801 61.8463 190.475 61.8706 190.139C61.8989 189.805 62.0567 189.482 62.3441 189.171L63.9105 189.683C63.6514 189.968 63.5664 190.253 63.6555 190.538C63.7486 190.821 63.9752 191.064 64.3354 191.267C64.6592 191.449 65.0154 191.569 65.404 191.625C65.7925 191.681 66.1791 191.677 66.5636 191.614C66.9521 191.549 67.3083 191.423 67.6321 191.236C68.1178 190.955 68.3667 190.636 68.3788 190.279C68.395 189.924 68.1603 189.606 67.6746 189.326C67.537 189.246 67.3751 189.176 67.1889 189.115C67.0067 189.057 66.8206 189.01 66.6303 188.975L67.0371 188.053L72.8472 188.26L72.6165 188.547L68.3667 186.094L69.5748 185.397L74.8325 188.432L73.6243 189.129L68.5974 189.073L68.9981 188.828C69.5485 189.146 69.9027 189.493 70.0605 189.869C70.2224 190.243 70.2022 190.614 69.9998 190.983C69.8055 191.352 69.4494 191.687 68.9313 191.986C68.3728 192.308 67.7454 192.518 67.0492 192.617C66.3571 192.717 65.6671 192.711 64.979 192.599C64.295 192.489 63.6798 192.277 63.1334 191.961ZM73.324 197.655L74.8478 196.775L70.9016 194.497L72.1037 193.803L80.9615 191.97L82.4125 192.808L73.5547 194.641L76.0499 196.081L78.4177 194.714L79.7047 195.457L77.337 196.824L78.2052 197.325L77.0031 198.019L76.1349 197.518L74.6111 198.398L73.324 197.655ZM84.5341 204.127L91.8802 199.886L89.2332 199.514L90.6478 198.698L93.2766 199.08L94.5698 199.826L85.8273 204.873L84.5341 204.127ZM89.7174 207.112L90.8527 206.463L98.0713 206.691C98.6501 206.712 99.1176 206.683 99.4737 206.604C99.8339 206.527 100.138 206.417 100.384 206.274C100.696 206.094 100.907 205.893 101.016 205.671C101.129 205.447 101.137 205.223 101.04 204.998C100.943 204.774 100.737 204.571 100.421 204.389C100.097 204.202 99.7307 204.079 99.3219 204.021C98.9213 203.962 98.5246 203.964 98.132 204.028C97.7394 204.091 97.3994 204.207 97.112 204.378L95.8128 203.628C96.3795 203.301 97.0028 203.088 97.6827 202.99C98.3708 202.892 99.0589 202.904 99.7469 203.025C100.439 203.144 101.074 203.371 101.653 203.705C102.204 204.023 102.572 204.38 102.758 204.778C102.948 205.173 102.952 205.567 102.77 205.962C102.592 206.359 102.226 206.718 101.671 207.038C101.271 207.27 100.878 207.435 100.494 207.536C100.109 207.636 99.6923 207.695 99.243 207.711C98.7938 207.728 98.2716 207.725 97.6767 207.704L92.1155 207.522L92.3401 207.231L96.8388 209.828L95.6307 210.526L89.7174 207.112ZM101.185 213.928C100.752 213.678 100.426 213.397 100.207 213.084C99.9928 212.768 99.8977 212.442 99.9219 212.106C99.9503 211.772 100.108 211.449 100.395 211.138L101.962 211.65C101.703 211.935 101.618 212.22 101.707 212.505C101.8 212.788 102.027 213.031 102.387 213.234C102.711 213.417 103.067 213.536 103.455 213.592C103.844 213.648 104.23 213.644 104.615 213.581C105.003 213.516 105.36 213.39 105.683 213.203C106.169 212.922 106.418 212.603 106.43 212.246C106.446 211.891 106.212 211.573 105.726 211.293C105.588 211.213 105.426 211.143 105.24 211.082C105.058 211.024 104.872 210.977 104.682 210.942L105.088 210.02L110.899 210.227L110.668 210.514L106.418 208.061L107.626 207.364L112.884 210.399L111.676 211.096L106.649 211.04L107.049 210.795C107.6 211.113 107.954 211.46 108.112 211.836C108.274 212.21 108.254 212.581 108.051 212.95C107.857 213.32 107.501 213.654 106.983 213.953C106.424 214.275 105.797 214.486 105.101 214.584C104.409 214.684 103.718 214.678 103.03 214.566C102.346 214.456 101.731 214.244 101.185 213.928ZM111.375 219.622L112.899 218.742L108.953 216.464L110.155 215.77L119.013 213.937L120.464 214.775L111.606 216.608L114.101 218.048L116.469 216.681L117.756 217.424L115.388 218.791L116.257 219.293L115.054 219.987L114.186 219.485L112.662 220.365L111.375 219.622ZM122.586 226.094L129.932 221.853L127.285 221.481L128.699 220.665L131.328 221.047L132.621 221.793L123.879 226.84L122.586 226.094ZM127.769 229.079L128.904 228.431L136.123 228.658C136.701 228.679 137.169 228.65 137.525 228.571C137.885 228.494 138.189 228.384 138.436 228.241C138.747 228.061 138.958 227.86 139.067 227.638C139.181 227.414 139.189 227.19 139.091 226.965C138.994 226.741 138.788 226.538 138.472 226.356C138.148 226.169 137.782 226.046 137.373 225.988C136.973 225.929 136.576 225.932 136.183 225.995C135.791 226.058 135.451 226.175 135.163 226.345L133.864 225.595C134.431 225.268 135.054 225.055 135.734 224.957C136.422 224.859 137.11 224.871 137.798 224.992C138.49 225.111 139.126 225.338 139.705 225.672C140.255 225.99 140.623 226.347 140.81 226.745C141 227.14 141.004 227.534 140.822 227.929C140.644 228.327 140.277 228.685 139.723 229.005C139.322 229.237 138.93 229.403 138.545 229.503C138.161 229.603 137.744 229.662 137.294 229.678C136.845 229.695 136.323 229.692 135.728 229.671L130.167 229.489L130.392 229.198L134.89 231.795L133.682 232.493L127.769 229.079ZM139.236 235.895C138.803 235.645 138.477 235.364 138.259 235.051C138.044 234.735 137.949 234.409 137.973 234.073C138.002 233.739 138.16 233.416 138.447 233.105L140.013 233.617C139.754 233.902 139.669 234.187 139.758 234.472C139.851 234.755 140.078 234.998 140.438 235.201C140.762 235.384 141.118 235.503 141.507 235.559C141.895 235.615 142.282 235.611 142.666 235.548C143.055 235.483 143.411 235.357 143.735 235.17C144.221 234.889 144.469 234.57 144.482 234.213C144.498 233.858 144.263 233.54 143.777 233.26C143.64 233.18 143.478 233.11 143.292 233.049C143.11 232.991 142.923 232.944 142.733 232.909L143.14 231.987L148.95 232.194L148.719 232.482L144.469 230.028L145.678 229.331L150.935 232.366L149.727 233.063L144.7 233.007L145.101 232.762C145.651 233.08 146.005 233.427 146.163 233.803C146.325 234.177 146.305 234.548 146.103 234.917C145.908 235.287 145.552 235.621 145.034 235.92C144.476 236.242 143.848 236.453 143.152 236.551C142.46 236.651 141.77 236.645 141.082 236.533C140.398 236.423 139.783 236.211 139.236 235.895ZM149.427 241.589L150.951 240.709L147.004 238.431L148.206 237.737L157.064 235.904L158.515 236.742L149.657 238.575L152.153 240.015L154.52 238.648L155.808 239.392L153.44 240.758L154.308 241.26L153.106 241.954L152.238 241.452L150.714 242.332L149.427 241.589ZM160.637 248.061L167.983 243.82L165.336 243.448L166.751 242.632L169.379 243.014L170.673 243.76L161.93 248.807L160.637 248.061ZM165.82 251.046L166.955 250.398L174.174 250.625C174.753 250.646 175.22 250.617 175.576 250.538C175.937 250.461 176.24 250.351 176.487 250.208C176.799 250.028 177.009 249.827 177.119 249.605C177.232 249.381 177.24 249.157 177.143 248.933C177.046 248.708 176.839 248.505 176.524 248.323C176.2 248.136 175.834 248.013 175.425 247.955C175.024 247.896 174.627 247.899 174.235 247.962C173.842 248.025 173.502 248.142 173.215 248.312L171.916 247.562C172.482 247.235 173.106 247.022 173.786 246.924C174.474 246.826 175.162 246.838 175.85 246.959C176.542 247.078 177.177 247.305 177.756 247.639C178.306 247.957 178.675 248.315 178.861 248.712C179.051 249.107 179.055 249.502 178.873 249.896C178.695 250.294 178.329 250.652 177.774 250.972C177.374 251.204 176.981 251.37 176.596 251.47C176.212 251.571 175.795 251.629 175.346 251.645C174.897 251.662 174.374 251.659 173.779 251.638L168.218 251.456L168.443 251.165L172.942 253.762L171.733 254.46L165.82 251.046ZM177.288 257.862C176.854 257.612 176.529 257.331 176.31 257.018C176.096 256.702 176 256.376 176.025 256.04C176.053 255.706 176.211 255.383 176.498 255.072L178.065 255.584C177.806 255.869 177.721 256.154 177.81 256.439C177.903 256.722 178.129 256.965 178.49 257.168C178.813 257.351 179.17 257.47 179.558 257.526C179.947 257.582 180.333 257.578 180.718 257.515C181.106 257.45 181.462 257.324 181.786 257.137C182.272 256.856 182.521 256.538 182.533 256.18C182.549 255.825 182.314 255.507 181.829 255.227C181.691 255.147 181.529 255.077 181.343 255.016C181.161 254.958 180.975 254.911 180.784 254.876L181.191 253.954L187.001 254.161L186.771 254.449L182.521 251.995L183.729 251.298L188.987 254.333L187.778 255.03L182.752 254.974L183.152 254.729C183.703 255.047 184.057 255.394 184.215 255.77C184.377 256.144 184.356 256.515 184.154 256.885C183.96 257.254 183.604 257.588 183.085 257.887C182.527 258.209 181.9 258.42 181.203 258.518C180.511 258.618 179.821 258.612 179.133 258.5C178.449 258.39 177.834 258.178 177.288 257.862ZM187.478 263.556L189.002 262.676L185.056 260.398L186.258 259.704L195.116 257.871L196.567 258.709L187.709 260.542L190.204 261.982L192.572 260.616L193.859 261.359L191.491 262.725L192.359 263.227L191.157 263.921L190.289 263.419L188.765 264.299L187.478 263.556Z" fill="white"/>
<path d="M66.4245 168.643L72.9813 164.857L75.6314 166.387C75.6951 166.424 75.771 166.471 75.859 166.529C75.9501 166.585 76.0305 166.642 76.1004 166.7C76.4069 166.944 76.586 167.191 76.6376 167.441C76.6923 167.694 76.6346 167.939 76.4646 168.177C76.2946 168.416 76.0336 168.637 75.6814 168.84C75.3263 169.045 74.9423 169.196 74.5294 169.295C74.1166 169.393 73.6916 169.426 73.2545 169.394C72.8204 169.365 72.3924 169.261 71.9705 169.084C71.8733 169.042 71.7731 168.995 71.6699 168.942C71.5698 168.892 71.4893 168.849 71.4286 168.814L69.7302 167.833L67.3761 169.192L66.4245 168.643ZM70.6318 167.313L72.2937 168.272C72.3545 168.307 72.4243 168.344 72.5032 168.382C72.5852 168.423 72.6671 168.458 72.7491 168.488C72.9889 168.573 73.2287 168.616 73.4685 168.614C73.7114 168.61 73.939 168.577 74.1515 168.514C74.364 168.451 74.5507 168.373 74.7116 168.28C74.8725 168.187 75.006 168.08 75.1123 167.959C75.2216 167.837 75.2777 167.706 75.2807 167.568C75.2868 167.427 75.2155 167.288 75.0667 167.15C75.0182 167.101 74.959 167.052 74.8892 167.005C74.8224 166.959 74.7586 166.919 74.6979 166.884L73.0359 165.925L70.6318 167.313ZM72.5893 172.202L79.1461 168.416L80.0978 168.966L77.2701 170.598L80.5486 172.491L83.3762 170.858L84.3324 171.41L77.7756 175.196L76.8194 174.644L79.6515 173.009L76.3731 171.116L73.5409 172.751L72.5893 172.202ZM82.11 177.856C81.4543 177.477 81.0384 177.072 80.8624 176.641C80.6894 176.208 80.7364 175.773 81.0035 175.335C81.2737 174.898 81.7473 174.485 82.4242 174.094C83.1011 173.703 83.8175 173.43 84.5734 173.274C85.3323 173.12 86.0851 173.093 86.8318 173.195C87.5816 173.295 88.2844 173.534 88.94 173.913C89.5927 174.289 90.0055 174.694 90.1786 175.127C90.3577 175.56 90.3121 175.995 90.042 176.431C89.7718 176.867 89.2982 177.281 88.6213 177.672C87.9444 178.062 87.228 178.336 86.4721 178.492C85.7163 178.648 84.9619 178.675 84.2091 178.573C83.4624 178.472 82.7627 178.232 82.11 177.856ZM83.0161 177.333C83.4745 177.604 83.9617 177.768 84.4777 177.824C84.9999 177.88 85.5265 177.844 86.0578 177.716C86.592 177.587 87.1096 177.377 87.6105 177.088C88.1113 176.799 88.471 176.502 88.6896 176.197C88.9112 175.89 88.9719 175.587 88.8717 175.287C88.7746 174.99 88.4953 174.706 88.0339 174.436C87.5756 174.164 87.0868 173.999 86.5677 173.942C86.0517 173.886 85.5265 173.922 84.9923 174.052C84.458 174.182 83.9389 174.39 83.435 174.678C82.9311 174.965 82.5684 175.262 82.3468 175.569C82.1282 175.874 82.069 176.176 82.1692 176.476C82.2724 176.777 82.5547 177.063 83.0161 177.333ZM86.7065 180.351L93.2633 176.566L97.4524 178.985L96.5554 179.502L93.318 177.633L91.4784 178.695L94.1694 180.249L93.2724 180.767L90.5814 179.213L88.5551 180.383L91.7926 182.252L90.8956 182.77L86.7065 180.351ZM92.4444 183.664L99.0013 179.879L99.9666 180.436L98.3228 185.112L103.195 182.3L104.16 182.857L97.6034 186.642L96.6381 186.085L98.2864 181.406L93.4097 184.221L92.4444 183.664ZM99.4207 187.691L105.978 183.906L106.929 184.456L100.372 188.241L99.4207 187.691ZM101.649 188.978L107.204 188.352L108.265 185.226L109.43 185.899L108.597 188.226L112.618 187.739L113.788 188.415L108.374 189.028L107.286 192.232L106.12 191.559L106.981 189.159L102.819 189.653L101.649 188.978ZM110.745 194.229L117.302 190.444L119.879 191.931C120.295 192.172 120.559 192.422 120.671 192.683C120.784 192.944 120.776 193.194 120.649 193.432C120.524 193.669 120.313 193.873 120.016 194.045C119.654 194.253 119.255 194.381 118.818 194.426C118.384 194.473 117.97 194.437 117.575 194.318L117.789 194.184C118.105 194.486 118.225 194.788 118.149 195.091C118.076 195.393 117.841 195.658 117.443 195.888C117.057 196.11 116.645 196.259 116.204 196.334C115.767 196.412 115.321 196.412 114.866 196.334C114.417 196.257 113.984 196.099 113.568 195.859L110.745 194.229ZM112.616 194.263L114.329 195.251C114.544 195.376 114.778 195.464 115.03 195.514C115.285 195.567 115.537 195.577 115.786 195.546C116.041 195.514 116.274 195.437 116.487 195.315C116.684 195.201 116.818 195.073 116.887 194.931C116.963 194.789 116.965 194.644 116.892 194.497C116.825 194.35 116.683 194.213 116.464 194.087L114.693 193.064L112.616 194.263ZM115.59 192.547L117.188 193.469C117.364 193.571 117.557 193.642 117.766 193.682C117.982 193.722 118.197 193.728 118.413 193.698C118.634 193.668 118.841 193.598 119.032 193.488C119.287 193.34 119.412 193.17 119.406 192.978C119.399 192.785 119.254 192.606 118.968 192.441L117.37 191.519L115.59 192.547ZM116.437 197.515L125.125 194.96L126.495 195.751L122.069 200.766L121.081 200.196L125.102 195.609L125.348 195.751L117.425 198.085L116.437 197.515ZM119.023 197.299L119.915 196.784L123.34 198.761L122.447 199.276L119.023 197.299ZM123.341 201.501L129.898 197.716L130.85 198.265L127.79 200.031L133.596 199.85L134.779 200.534L128.678 200.707L128.437 204.442L127.216 203.738L127.426 200.242L124.293 202.05L123.341 201.501ZM129.533 205.075L136.09 201.29L140.279 203.708L139.382 204.226L136.144 202.357L134.305 203.419L136.996 204.973L136.099 205.491L133.408 203.937L131.382 205.107L134.619 206.976L133.722 207.494L129.533 205.075ZM135.271 208.388L141.828 204.602L144.478 206.132C144.542 206.169 144.617 206.216 144.705 206.274C144.797 206.33 144.877 206.387 144.947 206.445C145.253 206.689 145.432 206.936 145.484 207.186C145.539 207.439 145.481 207.684 145.311 207.922C145.141 208.161 144.88 208.382 144.528 208.585C144.006 208.886 143.421 209.069 142.775 209.134C142.131 209.197 141.495 209.102 140.867 208.848L140.434 208.651L138.577 207.578L136.223 208.937L135.271 208.388ZM139.105 210.601L140.48 208.314L141.687 208.727L140.193 211.229L139.105 210.601ZM139.478 207.058L141.14 208.017C141.201 208.052 141.271 208.089 141.35 208.127C141.432 208.168 141.514 208.203 141.596 208.233C141.835 208.319 142.075 208.361 142.315 208.359C142.558 208.355 142.785 208.322 142.998 208.259C143.21 208.196 143.397 208.118 143.558 208.025C143.719 207.932 143.852 207.825 143.959 207.704C144.068 207.582 144.124 207.451 144.127 207.313C144.133 207.172 144.062 207.033 143.913 206.895C143.865 206.846 143.805 206.797 143.736 206.75C143.669 206.705 143.605 206.664 143.544 206.629L141.882 205.67L139.478 207.058Z" fill="white"/>
<path d="M186.893 238.347C186.447 238.09 186.149 237.806 186 237.496C185.855 237.184 185.855 236.872 186 236.56C186.149 236.25 186.447 235.966 186.893 235.708L189.151 234.404C189.597 234.147 190.089 233.975 190.627 233.889C191.167 233.805 191.706 233.806 192.243 233.892C192.783 233.976 193.277 234.147 193.723 234.404C194.169 234.662 194.465 234.947 194.611 235.259C194.759 235.569 194.759 235.879 194.611 236.189C194.465 236.501 194.169 236.786 193.723 237.043L191.464 238.347C191.018 238.605 190.525 238.776 189.985 238.86C189.447 238.946 188.908 238.947 188.368 238.862C187.831 238.777 187.339 238.605 186.893 238.347ZM187.803 237.821C188.046 237.962 188.324 238.055 188.637 238.103C188.955 238.15 189.273 238.151 189.588 238.105C189.907 238.058 190.189 237.963 190.435 237.821L192.821 236.444C193.064 236.304 193.225 236.143 193.304 235.96C193.386 235.776 193.384 235.593 193.299 235.411C193.22 235.229 193.06 235.068 192.817 234.927C192.574 234.787 192.293 234.693 191.974 234.646C191.662 234.599 191.346 234.599 191.027 234.646C190.712 234.692 190.432 234.784 190.189 234.925L187.803 236.302C187.558 236.444 187.394 236.607 187.312 236.791C187.233 236.973 187.233 237.156 187.312 237.338C187.397 237.52 187.561 237.681 187.803 237.821ZM193.159 241.965C192.734 241.719 192.452 241.441 192.312 241.129C192.176 240.815 192.183 240.499 192.335 240.18C192.49 239.863 192.792 239.574 193.241 239.315L195.331 238.109C195.808 237.833 196.325 237.649 196.884 237.554C197.445 237.461 198.002 237.458 198.555 237.546C199.11 237.635 199.619 237.813 200.08 238.08C200.426 238.279 200.686 238.505 200.859 238.755C201.032 239.006 201.1 239.27 201.064 239.546L199.716 239.52C199.752 239.355 199.724 239.192 199.629 239.029C199.541 238.866 199.391 238.723 199.179 238.6C198.905 238.442 198.6 238.342 198.263 238.298C197.93 238.252 197.599 238.256 197.271 238.308C196.946 238.363 196.664 238.459 196.424 238.597L195.222 239.291L195.245 239.063C195.679 239.029 196.107 239.052 196.529 239.131C196.951 239.21 197.321 239.341 197.64 239.525C198.046 239.76 198.314 240.025 198.441 240.319C198.575 240.614 198.57 240.907 198.427 241.2C198.288 241.494 198.015 241.759 197.608 241.994C197.198 242.23 196.723 242.385 196.183 242.459C195.648 242.533 195.111 242.527 194.571 242.443C194.036 242.359 193.566 242.2 193.159 241.965ZM194.074 241.436C194.311 241.573 194.584 241.664 194.894 241.71C195.204 241.755 195.513 241.755 195.823 241.71C196.132 241.664 196.406 241.573 196.642 241.436C196.879 241.3 197.037 241.142 197.116 240.963C197.198 240.786 197.199 240.608 197.121 240.43C197.042 240.251 196.884 240.093 196.647 239.956C196.41 239.82 196.136 239.728 195.823 239.68C195.513 239.635 195.204 239.635 194.894 239.68C194.584 239.726 194.311 239.817 194.074 239.954C193.841 240.089 193.684 240.246 193.605 240.424C193.526 240.603 193.525 240.783 193.601 240.963C193.68 241.142 193.838 241.3 194.074 241.436ZM205.368 241.284L206.328 241.839L198.023 244.615L197.062 244.06L205.368 241.284ZM201.237 246.465L202.089 245.979L207.503 246.15C207.937 246.166 208.287 246.144 208.555 246.084C208.825 246.026 209.052 245.944 209.238 245.837C209.471 245.702 209.629 245.551 209.711 245.385C209.796 245.217 209.802 245.049 209.729 244.88C209.657 244.712 209.502 244.56 209.265 244.423C209.022 244.283 208.747 244.191 208.441 244.147C208.14 244.103 207.843 244.105 207.548 244.152C207.254 244.199 206.999 244.287 206.783 244.415L205.809 243.852C206.234 243.607 206.701 243.448 207.211 243.374C207.727 243.3 208.243 243.309 208.76 243.4C209.279 243.49 209.755 243.66 210.189 243.91C210.602 244.149 210.878 244.417 211.018 244.715C211.161 245.011 211.164 245.307 211.027 245.603C210.894 245.901 210.619 246.17 210.203 246.41C209.902 246.584 209.608 246.708 209.32 246.783C209.031 246.859 208.719 246.903 208.382 246.915C208.045 246.927 207.653 246.925 207.207 246.91L203.036 246.773L203.204 246.555L206.578 248.503L205.672 249.026L201.237 246.465ZM209.815 251.422L210.958 250.763L207.998 249.054L208.9 248.533L215.543 247.159L216.631 247.787L209.988 249.162L211.859 250.242L213.635 249.217L214.6 249.774L212.825 250.799L213.476 251.175L212.574 251.696L211.923 251.32L210.78 251.98L209.815 251.422Z" fill="white"/>
<path d="M163.453 122.83L165.053 123.753L159.284 127.084C158.651 127.449 157.946 127.684 157.167 127.788C156.39 127.895 155.599 127.87 154.791 127.716C153.986 127.56 153.224 127.275 152.505 126.86C151.784 126.443 151.288 126.003 151.018 125.538C150.751 125.072 150.709 124.615 150.893 124.166C151.077 123.718 151.485 123.312 152.117 122.947L157.887 119.616L159.486 120.54L153.851 123.793C153.483 124.005 153.236 124.241 153.109 124.5C152.986 124.761 152.99 125.024 153.122 125.289C153.257 125.553 153.527 125.802 153.933 126.036C154.338 126.27 154.769 126.426 155.226 126.504C155.689 126.582 156.145 126.584 156.593 126.511C157.042 126.438 157.45 126.296 157.818 126.083L163.453 122.83ZM163.334 128.476L159.453 130.716L157.892 129.815L164.515 125.992L166.007 126.853L164.882 127.503L164.959 127.547C165.482 127.421 166.02 127.392 166.572 127.458C167.127 127.526 167.651 127.703 168.146 127.988C168.603 128.252 168.903 128.538 169.047 128.847C169.194 129.157 169.175 129.473 168.991 129.795C168.81 130.119 168.453 130.433 167.922 130.736L163.705 133.171L162.144 132.27L166.119 129.975C166.562 129.719 166.793 129.453 166.813 129.175C166.836 128.9 166.647 128.646 166.244 128.414C165.971 128.256 165.668 128.151 165.334 128.098C165.007 128.045 164.67 128.048 164.325 128.108C163.983 128.169 163.653 128.292 163.334 128.476ZM175.222 132.173L174.014 132.87L170.207 130.672L171.414 129.975L175.222 132.173ZM173.941 129.601L175.502 130.502L169.284 134.092C169.074 134.213 168.945 134.324 168.896 134.425C168.853 134.527 168.864 134.619 168.931 134.704C168.997 134.789 169.094 134.868 169.224 134.943C169.321 135 169.418 135.047 169.513 135.085C169.61 135.125 169.687 135.154 169.741 135.172L168.784 136.028C168.672 135.997 168.521 135.946 168.331 135.877C168.144 135.809 167.937 135.712 167.71 135.588C167.308 135.369 167.015 135.131 166.831 134.876C166.65 134.619 166.605 134.357 166.697 134.092C166.792 133.828 167.048 133.577 167.465 133.34L173.941 129.601ZM169.904 136.75L176.527 132.926L178.088 133.827L171.465 137.651L169.904 136.75ZM178.252 132.837C178.005 132.694 177.874 132.524 177.859 132.326C177.848 132.127 177.959 131.96 178.191 131.826C178.427 131.69 178.716 131.626 179.058 131.634C179.403 131.641 179.699 131.716 179.946 131.858C180.196 132.003 180.326 132.174 180.334 132.371C180.349 132.569 180.238 132.735 180.002 132.871C179.77 133.006 179.481 133.07 179.136 133.063C178.797 133.056 178.502 132.981 178.252 132.837ZM183 136.663L181.793 137.36L177.986 135.162L179.193 134.465L183 136.663ZM181.72 134.092L183.281 134.993L177.063 138.582C176.853 138.704 176.724 138.815 176.675 138.916C176.632 139.017 176.643 139.11 176.709 139.195C176.775 139.279 176.873 139.359 177.002 139.434C177.1 139.49 177.196 139.537 177.291 139.576C177.389 139.615 177.465 139.644 177.52 139.663L176.563 140.519C176.45 140.487 176.3 140.437 176.11 140.367C175.923 140.299 175.716 140.203 175.489 140.078C175.086 139.859 174.793 139.622 174.609 139.366C174.428 139.109 174.384 138.848 174.476 138.582C174.571 138.319 174.826 138.068 175.243 137.831L181.72 134.092ZM188.217 137.126L179.386 142.224L177.825 141.322L186.656 136.224L188.217 137.126ZM183.794 144.918C183.13 144.534 182.694 144.123 182.487 143.685C182.286 143.247 182.31 142.807 182.56 142.364C182.813 141.919 183.286 141.496 183.979 141.097C184.66 140.703 185.388 140.433 186.161 140.285C186.94 140.137 187.707 140.116 188.463 140.22C189.222 140.323 189.918 140.557 190.55 140.922C190.959 141.158 191.278 141.418 191.508 141.704C191.743 141.989 191.864 142.291 191.87 142.61C191.878 142.93 191.752 143.259 191.49 143.596C191.232 143.931 190.812 144.266 190.231 144.601L189.753 144.878L184.324 141.744L185.376 141.136L189.309 143.407C189.605 143.232 189.806 143.041 189.912 142.834C190.021 142.625 190.03 142.416 189.938 142.207C189.849 141.999 189.655 141.809 189.356 141.637C189.037 141.452 188.679 141.335 188.282 141.286C187.889 141.234 187.499 141.242 187.114 141.308C186.734 141.374 186.395 141.492 186.096 141.662L185.178 142.192C184.793 142.414 184.532 142.646 184.397 142.886C184.265 143.125 184.252 143.36 184.359 143.591C184.468 143.82 184.692 144.032 185.031 144.228C185.258 144.359 185.495 144.46 185.743 144.529C185.993 144.597 186.249 144.634 186.51 144.639C186.772 144.644 187.03 144.612 187.286 144.544L188.58 145.48C188.103 145.649 187.591 145.742 187.045 145.759C186.504 145.775 185.955 145.714 185.398 145.575C184.843 145.434 184.308 145.215 183.794 144.918ZM190.53 148.791C190.01 148.491 189.678 148.145 189.534 147.753C189.39 147.362 189.453 146.95 189.724 146.519C189.994 146.087 190.493 145.662 191.22 145.242C191.956 144.817 192.697 144.528 193.445 144.375C194.198 144.223 194.911 144.191 195.583 144.281C196.259 144.369 196.851 144.56 197.36 144.853C197.748 145.077 198.001 145.3 198.119 145.521C198.24 145.74 198.281 145.945 198.244 146.135C198.209 146.325 198.152 146.489 198.071 146.628L198.136 146.666L201.439 144.759L203.004 145.662L194.173 150.76L192.638 149.874L193.682 149.272L193.587 149.217C193.346 149.264 193.058 149.295 192.725 149.312C192.394 149.327 192.041 149.298 191.664 149.227C191.287 149.156 190.909 149.01 190.53 148.791ZM192.246 148.304C192.577 148.494 192.947 148.606 193.359 148.637C193.772 148.667 194.201 148.624 194.643 148.508C195.086 148.391 195.522 148.21 195.95 147.963C196.378 147.715 196.69 147.465 196.886 147.213C197.084 146.963 197.154 146.72 197.097 146.484C197.042 146.25 196.847 146.036 196.511 145.842C196.163 145.641 195.782 145.526 195.368 145.496C194.954 145.466 194.528 145.509 194.092 145.625C193.655 145.741 193.231 145.918 192.82 146.155C192.406 146.394 192.095 146.642 191.888 146.897C191.687 147.153 191.609 147.402 191.655 147.644C191.707 147.886 191.904 148.106 192.246 148.304ZM196.703 152.331C196.442 152.18 196.31 151.997 196.307 151.783C196.304 151.569 196.436 151.386 196.703 151.235C196.959 151.084 197.273 151.01 197.643 151.011C198.014 151.013 198.33 151.089 198.592 151.24C198.845 151.386 198.973 151.566 198.976 151.78C198.982 151.996 198.857 152.18 198.601 152.331C198.422 152.43 198.217 152.496 197.984 152.527C197.754 152.56 197.524 152.56 197.294 152.527C197.07 152.494 196.873 152.428 196.703 152.331Z" fill="white"/>
<g clip-path="url(#clip1_463_33551)">
<path d="M365.186 236.614C364.141 238.865 362.088 240.917 359.234 242.565C356.379 244.213 352.823 245.398 348.924 246.002M359.82 235.581C359.005 237.337 357.403 238.938 355.177 240.223C352.95 241.509 350.177 242.433 347.135 242.904M354.762 234.558C354.158 235.836 352.983 237.003 351.356 237.943C349.729 238.882 347.707 239.56 345.493 239.909M349.574 233.609C349.277 234.451 348.57 235.214 347.535 235.812C346.5 236.409 345.178 236.817 343.72 236.989" stroke="white" stroke-width="2.25328" stroke-linecap="round"/>
</g>
</g>
<path d="M175.108 108.669L384.563 229.587C392.735 234.305 392.735 241.955 384.563 246.673L270.729 312.389C262.556 317.107 249.305 317.108 241.132 312.39L31.6766 191.471C23.5038 186.753 23.5046 179.103 31.6775 174.385L145.512 108.669C153.684 103.951 166.935 103.951 175.108 108.669Z" stroke="url(#paint1_linear_463_33551)" stroke-opacity="0.3" stroke-width="0.876275"/>
</g>
<foreignObject x="5.60481" y="41.9572" width="415.546" height="254.982"><div xmlns="http://www.w3.org/1999/xhtml" style="backdrop-filter:blur(5.26px);clip-path:url(#bgblur_3_463_33551_clip_path);height:100%;width:100%"></div></foreignObject><g filter="url(#filter2_d_463_33551)" data-figma-bg-blur-radius="10.5153">
<g clip-path="url(#clip2_463_33551)">
<path d="M145.132 61.2347C153.514 56.3954 167.105 56.3954 175.487 61.2347L384.942 182.153C393.325 186.992 393.324 194.838 384.942 199.677L271.108 265.393C262.726 270.233 249.135 270.233 240.752 265.393L31.2977 144.475C22.9152 139.636 22.9152 131.79 31.2977 126.951L145.132 61.2347Z" fill="url(#paint2_linear_463_33551)"/>
<rect width="199.888" height="166" transform="matrix(0.866044 0.499967 -0.866044 0.499967 160.31 52.4725)" fill="#344054"/>
<path d="M163.453 75.6149L165.053 76.5384L159.284 79.869C158.651 80.2341 157.946 80.4689 157.167 80.5735C156.39 80.6797 155.599 80.6556 154.791 80.5013C153.986 80.3453 153.224 80.0599 152.505 79.645C151.784 79.2285 151.288 78.7879 151.018 78.3232C150.751 77.8569 150.709 77.3997 150.893 76.9516C151.077 76.5036 151.485 76.097 152.117 75.7319L157.887 72.4013L159.486 73.3248L153.851 76.5782C153.483 76.7907 153.236 77.0263 153.109 77.2852C152.986 77.5457 152.99 77.8088 153.122 78.0743C153.257 78.3381 153.527 78.5871 153.933 78.8211C154.338 79.055 154.769 79.211 155.226 79.289C155.689 79.367 156.145 79.3695 156.593 79.2965C157.042 79.2235 157.45 79.0808 157.818 78.8684L163.453 75.6149ZM163.334 81.2611L159.453 83.5015L157.892 82.6004L164.515 78.7769L166.007 79.6382L164.882 80.2878L164.959 80.3327C165.482 80.2065 166.02 80.1767 166.572 80.243C167.127 80.3111 167.651 80.4878 168.146 80.7733C168.603 81.0371 168.903 81.3234 169.047 81.632C169.194 81.9424 169.175 82.2585 168.991 82.5805C168.81 82.9041 168.453 83.2177 167.922 83.5214L163.705 85.9559L162.144 85.0548L166.119 82.7597C166.562 82.5041 166.793 82.2378 166.813 81.9606C166.836 81.6852 166.647 81.4312 166.244 81.1989C165.971 81.0413 165.668 80.9359 165.334 80.8828C165.007 80.8297 164.67 80.833 164.325 80.8927C163.983 80.9541 163.653 81.0769 163.334 81.2611ZM175.222 84.9577L174.014 85.6547L170.207 83.4567L171.414 82.7597L175.222 84.9577ZM173.941 82.3863L175.502 83.2874L169.284 86.8769C169.074 86.9981 168.945 87.1092 168.896 87.2105C168.853 87.3117 168.864 87.4046 168.931 87.4893C168.997 87.5739 169.094 87.6536 169.224 87.7282C169.321 87.7847 169.418 87.832 169.513 87.8701C169.61 87.91 169.687 87.939 169.741 87.9572L168.784 88.8136C168.672 88.782 168.521 88.7314 168.331 88.6617C168.144 88.5937 167.937 88.4974 167.71 88.373C167.308 88.1539 167.015 87.9166 166.831 87.661C166.65 87.4038 166.605 87.1424 166.697 86.8769C166.792 86.613 167.048 86.3625 167.465 86.1252L173.941 82.3863ZM169.904 89.5348L176.527 85.7113L178.088 86.6124L171.465 90.4359L169.904 89.5348ZM178.252 85.6217C178.005 85.479 177.874 85.3089 177.859 85.1114C177.848 84.9123 177.959 84.7455 178.191 84.6111C178.427 84.475 178.716 84.4111 179.058 84.4194C179.403 84.426 179.699 84.5007 179.946 84.6434C180.196 84.7878 180.326 84.9587 180.334 85.1562C180.349 85.3537 180.238 85.5205 180.002 85.6566C179.77 85.791 179.481 85.8549 179.136 85.8482C178.797 85.8416 178.502 85.7661 178.252 85.6217ZM183 89.4483L181.793 90.1453L177.986 87.9473L179.193 87.2503L183 89.4483ZM181.72 86.8769L183.281 87.778L177.063 91.3675C176.853 91.4887 176.724 91.5999 176.675 91.7011C176.632 91.8023 176.643 91.8953 176.709 91.9799C176.775 92.0645 176.873 92.1442 177.002 92.2189C177.1 92.2753 177.196 92.3226 177.291 92.3607C177.389 92.4006 177.465 92.4296 177.52 92.4479L176.563 93.3042C176.45 93.2726 176.3 93.222 176.11 93.1523C175.923 93.0843 175.716 92.988 175.489 92.8636C175.086 92.6445 174.793 92.4072 174.609 92.1516C174.428 91.8944 174.384 91.633 174.476 91.3675C174.571 91.1037 174.826 90.8531 175.243 90.6158L181.72 86.8769ZM188.217 89.9107L179.386 95.0087L177.825 94.1076L186.656 89.0096L188.217 89.9107ZM183.794 97.7027C183.13 97.3193 182.694 96.9086 182.487 96.4705C182.286 96.0324 182.31 95.5918 182.56 95.1487C182.813 94.704 183.286 94.2816 183.979 93.8817C184.66 93.4884 185.388 93.2179 186.161 93.0702C186.94 92.9225 187.707 92.9009 188.463 93.0055C189.222 93.1083 189.918 93.3423 190.55 93.7074C190.959 93.9431 191.278 94.2036 191.508 94.4891C191.743 94.7745 191.864 95.0765 191.87 95.3951C191.878 95.7154 191.752 96.044 191.49 96.3809C191.232 96.7161 190.812 97.0513 190.231 97.3866L189.753 97.6629L184.324 94.5289L185.376 93.9215L189.309 96.1917C189.605 96.0175 189.806 95.8266 189.912 95.6192C190.021 95.4101 190.03 95.201 189.938 94.9919C189.849 94.7844 189.655 94.5944 189.356 94.4218C189.037 94.2376 188.679 94.1206 188.282 94.0709C187.889 94.0194 187.499 94.0269 187.114 94.0933C186.734 94.1596 186.395 94.2775 186.096 94.4467L185.178 94.9769C184.793 95.1993 184.532 95.4308 184.397 95.6715C184.265 95.9104 184.252 96.1452 184.359 96.3759C184.468 96.6049 184.692 96.8173 185.031 97.0132C185.258 97.1443 185.495 97.2447 185.743 97.3144C185.993 97.3824 186.249 97.4189 186.51 97.4239C186.772 97.4289 187.03 97.3973 187.286 97.3293L188.58 98.2653C188.103 98.4345 187.591 98.5275 187.045 98.5441C186.504 98.5606 185.955 98.4992 185.398 98.3598C184.843 98.2188 184.308 97.9997 183.794 97.7027ZM190.53 101.577C190.01 101.276 189.678 100.93 189.534 100.539C189.39 100.147 189.453 99.7354 189.724 99.3039C189.994 98.8724 190.493 98.4468 191.22 98.0269C191.956 97.6021 192.697 97.3133 193.445 97.1607C194.198 97.008 194.911 96.9764 195.583 97.0661C196.259 97.154 196.851 97.3449 197.36 97.6386C197.748 97.8626 198.001 98.085 198.119 98.3057C198.24 98.5248 198.281 98.7297 198.244 98.9206C198.209 99.1097 198.152 99.274 198.071 99.4134L198.136 99.4508L201.439 97.544L203.004 98.4476L194.173 103.546L192.638 102.659L193.682 102.057L193.587 102.002C193.346 102.049 193.058 102.08 192.725 102.097C192.394 102.112 192.041 102.084 191.664 102.012C191.287 101.941 190.909 101.796 190.53 101.577ZM192.246 101.089C192.577 101.28 192.947 101.391 193.359 101.422C193.772 101.452 194.201 101.409 194.643 101.293C195.086 101.177 195.522 100.995 195.95 100.748C196.378 100.5 196.69 100.251 196.886 99.9984C197.084 99.7478 197.154 99.5047 197.097 99.2691C197.042 99.0351 196.847 98.821 196.511 98.6268C196.163 98.426 195.782 98.3107 195.368 98.2808C194.954 98.2509 194.528 98.2941 194.092 98.4103C193.655 98.5264 193.231 98.7032 192.82 98.9405C192.406 99.1794 192.095 99.4267 191.888 99.6823C191.687 99.9378 191.609 100.187 191.655 100.429C191.707 100.671 191.904 100.891 192.246 101.089ZM196.703 105.116C196.442 104.965 196.31 104.782 196.307 104.568C196.304 104.354 196.436 104.171 196.703 104.02C196.959 103.869 197.273 103.795 197.643 103.796C198.014 103.798 198.33 103.874 198.592 104.025C198.845 104.171 198.973 104.351 198.976 104.566C198.982 104.781 198.857 104.965 198.601 105.116C198.422 105.215 198.217 105.281 197.984 105.312C197.754 105.346 197.524 105.346 197.294 105.312C197.07 105.279 196.873 105.214 196.703 105.116Z" fill="white"/>
<path d="M243.029 228.154C244.705 227.186 247.424 227.186 249.1 228.154L277.432 244.51C279.109 245.478 279.109 247.047 277.432 248.015L259.219 258.53C257.542 259.498 254.824 259.498 253.147 258.53L224.815 242.174C223.139 241.206 223.139 239.637 224.815 238.669L243.029 228.154Z" fill="white" fill-opacity="0.1"/>
<path opacity="0.5" d="M262.809 241.944C266.598 244.132 266.634 247.657 262.89 249.819C259.146 251.98 253.039 251.96 249.25 249.772C247.551 248.791 246.609 247.541 246.422 246.265C244.213 246.157 242.048 245.614 240.349 244.634C236.56 242.446 236.523 238.92 240.267 236.759C244.012 234.597 250.119 234.619 253.908 236.806C255.607 237.787 256.549 239.036 256.737 240.311C258.945 240.419 261.11 240.964 262.809 241.944Z" fill="white"/>
<path opacity="0.5" d="M262.809 241.944C266.598 244.132 266.635 247.658 262.891 249.819C259.147 251.981 253.039 251.959 249.25 249.772C247.551 248.791 246.61 247.541 246.422 246.266C249.14 246.399 251.925 245.873 253.99 244.681C256.056 243.488 256.968 241.88 256.737 240.311C258.946 240.42 261.11 240.964 262.809 241.944Z" fill="white"/>
<path d="M256.737 240.311C256.968 241.88 256.054 243.488 253.989 244.68C251.923 245.873 249.14 246.399 246.422 246.266C246.191 244.697 247.103 243.09 249.168 241.897C251.234 240.705 254.019 240.178 256.737 240.311Z" fill="white"/>
<path d="M46.4828 134.945L53.8289 130.704L51.1818 130.332L52.5964 129.516L55.2252 129.898L56.5184 130.644L47.7759 135.691L46.4828 134.945ZM51.666 137.93L52.8013 137.282L60.0199 137.509C60.5987 137.53 61.0662 137.501 61.4223 137.422C61.7826 137.345 62.0861 137.235 62.333 137.092C62.6447 136.912 62.8551 136.711 62.9644 136.489C63.0777 136.265 63.0858 136.041 62.9887 135.817C62.8916 135.592 62.6851 135.389 62.3694 135.207C62.0456 135.02 61.6794 134.897 61.2706 134.839C60.8699 134.78 60.4732 134.783 60.0806 134.846C59.688 134.909 59.348 135.026 59.0607 135.196L57.7614 134.446C58.3281 134.119 58.9514 133.906 59.6313 133.808C60.3194 133.71 61.0075 133.722 61.6955 133.843C62.3877 133.962 63.0231 134.189 63.6019 134.523C64.1523 134.841 64.5206 135.198 64.7068 135.596C64.8971 135.991 64.9011 136.385 64.719 136.78C64.5409 137.178 64.1746 137.536 63.6201 137.856C63.2194 138.088 62.8268 138.254 62.4423 138.354C62.0578 138.455 61.6409 138.513 61.1916 138.529C60.7424 138.546 60.2203 138.543 59.6253 138.522L54.0641 138.34L54.2887 138.049L58.7875 140.646L57.5793 141.344L51.666 137.93ZM63.1334 144.746C62.7003 144.496 62.3745 144.215 62.1559 143.902C61.9414 143.586 61.8463 143.26 61.8706 142.924C61.8989 142.59 62.0567 142.267 62.3441 141.956L63.9105 142.468C63.6514 142.753 63.5664 143.038 63.6555 143.323C63.7486 143.606 63.9752 143.849 64.3354 144.052C64.6592 144.235 65.0154 144.354 65.404 144.41C65.7925 144.466 66.1791 144.462 66.5636 144.399C66.9521 144.334 67.3083 144.208 67.6321 144.021C68.1178 143.74 68.3667 143.421 68.3788 143.064C68.395 142.709 68.1603 142.391 67.6746 142.111C67.537 142.031 67.3751 141.961 67.1889 141.9C67.0067 141.842 66.8206 141.795 66.6303 141.76L67.0371 140.838L72.8472 141.045L72.6165 141.333L68.3667 138.879L69.5748 138.182L74.8325 141.217L73.6243 141.914L68.5974 141.858L68.9981 141.613C69.5485 141.931 69.9027 142.278 70.0605 142.654C70.2224 143.028 70.2022 143.399 69.9998 143.768C69.8055 144.138 69.4494 144.472 68.9313 144.771C68.3728 145.093 67.7454 145.304 67.0492 145.402C66.3571 145.502 65.6671 145.496 64.979 145.384C64.295 145.274 63.6798 145.062 63.1334 144.746ZM73.324 150.44L74.8478 149.56L70.9016 147.282L72.1037 146.588L80.9615 144.755L82.4125 145.593L73.5547 147.426L76.0499 148.866L78.4177 147.5L79.7047 148.243L77.337 149.609L78.2052 150.111L77.0031 150.805L76.1349 150.303L74.6111 151.183L73.324 150.44ZM84.5341 156.912L91.8802 152.671L89.2332 152.299L90.6478 151.483L93.2766 151.865L94.5698 152.611L85.8273 157.658L84.5341 156.912ZM89.7174 159.897L90.8527 159.249L98.0713 159.476C98.6501 159.497 99.1176 159.468 99.4737 159.389C99.8339 159.312 100.138 159.202 100.384 159.059C100.696 158.879 100.907 158.678 101.016 158.457C101.129 158.232 101.137 158.008 101.04 157.784C100.943 157.559 100.737 157.356 100.421 157.174C100.097 156.987 99.7307 156.864 99.3219 156.806C98.9213 156.747 98.5246 156.75 98.132 156.813C97.7394 156.876 97.3994 156.993 97.112 157.163L95.8128 156.413C96.3795 156.086 97.0028 155.873 97.6827 155.775C98.3708 155.677 99.0589 155.689 99.7469 155.81C100.439 155.93 101.074 156.156 101.653 156.49C102.204 156.808 102.572 157.166 102.758 157.563C102.948 157.958 102.952 158.353 102.77 158.747C102.592 159.145 102.226 159.503 101.671 159.823C101.271 160.055 100.878 160.221 100.494 160.321C100.109 160.422 99.6923 160.48 99.243 160.496C98.7938 160.513 98.2716 160.51 97.6767 160.489L92.1155 160.307L92.3401 160.016L96.8388 162.613L95.6307 163.311L89.7174 159.897ZM101.185 166.713C100.752 166.463 100.426 166.182 100.207 165.869C99.9928 165.553 99.8977 165.227 99.9219 164.891C99.9503 164.557 100.108 164.234 100.395 163.924L101.962 164.435C101.703 164.72 101.618 165.005 101.707 165.29C101.8 165.573 102.027 165.816 102.387 166.019C102.711 166.202 103.067 166.321 103.455 166.377C103.844 166.433 104.23 166.43 104.615 166.366C105.003 166.301 105.36 166.175 105.683 165.988C106.169 165.708 106.418 165.389 106.43 165.031C106.446 164.676 106.212 164.358 105.726 164.078C105.588 163.998 105.426 163.928 105.24 163.867C105.058 163.809 104.872 163.762 104.682 163.727L105.088 162.805L110.899 163.012L110.668 163.3L106.418 160.846L107.626 160.149L112.884 163.184L111.676 163.881L106.649 163.825L107.049 163.58C107.6 163.898 107.954 164.245 108.112 164.621C108.274 164.995 108.254 165.366 108.051 165.736C107.857 166.105 107.501 166.439 106.983 166.738C106.424 167.06 105.797 167.271 105.101 167.369C104.409 167.469 103.718 167.463 103.03 167.351C102.346 167.241 101.731 167.029 101.185 166.713ZM111.375 172.407L112.899 171.527L108.953 169.249L110.155 168.555L119.013 166.722L120.464 167.56L111.606 169.393L114.101 170.833L116.469 169.467L117.756 170.21L115.388 171.577L116.257 172.078L115.054 172.772L114.186 172.27L112.662 173.15L111.375 172.407ZM122.586 178.879L129.932 174.638L127.285 174.266L128.699 173.45L131.328 173.832L132.621 174.578L123.879 179.625L122.586 178.879ZM127.769 181.864L128.904 181.216L136.123 181.444C136.701 181.465 137.169 181.435 137.525 181.356C137.885 181.279 138.189 181.169 138.436 181.026C138.747 180.847 138.958 180.646 139.067 180.424C139.181 180.199 139.189 179.975 139.091 179.751C138.994 179.526 138.788 179.323 138.472 179.141C138.148 178.954 137.782 178.831 137.373 178.773C136.973 178.714 136.576 178.717 136.183 178.78C135.791 178.843 135.451 178.96 135.163 179.13L133.864 178.38C134.431 178.053 135.054 177.84 135.734 177.742C136.422 177.644 137.11 177.656 137.798 177.777C138.49 177.897 139.126 178.123 139.705 178.457C140.255 178.775 140.623 179.133 140.81 179.53C141 179.925 141.004 180.32 140.822 180.714C140.644 181.112 140.277 181.47 139.723 181.79C139.322 182.022 138.93 182.188 138.545 182.288C138.161 182.389 137.744 182.447 137.294 182.463C136.845 182.48 136.323 182.477 135.728 182.456L130.167 182.274L130.392 181.983L134.89 184.58L133.682 185.278L127.769 181.864ZM139.236 188.68C138.803 188.43 138.477 188.149 138.259 187.836C138.044 187.52 137.949 187.194 137.973 186.858C138.002 186.524 138.16 186.201 138.447 185.891L140.013 186.402C139.754 186.687 139.669 186.972 139.758 187.257C139.851 187.54 140.078 187.783 140.438 187.986C140.762 188.169 141.118 188.288 141.507 188.344C141.895 188.4 142.282 188.397 142.666 188.333C143.055 188.268 143.411 188.142 143.735 187.955C144.221 187.675 144.469 187.356 144.482 186.998C144.498 186.643 144.263 186.325 143.777 186.045C143.64 185.965 143.478 185.895 143.292 185.835C143.11 185.776 142.923 185.729 142.733 185.694L143.14 184.773L148.95 184.979L148.719 185.267L144.469 182.813L145.678 182.116L150.935 185.151L149.727 185.849L144.7 185.792L145.101 185.547C145.651 185.865 146.005 186.212 146.163 186.588C146.325 186.962 146.305 187.333 146.103 187.703C145.908 188.072 145.552 188.406 145.034 188.705C144.476 189.027 143.848 189.238 143.152 189.336C142.46 189.436 141.77 189.431 141.082 189.318C140.398 189.209 139.783 188.996 139.236 188.68ZM149.427 194.374L150.951 193.495L147.004 191.216L148.206 190.522L157.064 188.689L158.515 189.527L149.657 191.36L152.153 192.801L154.52 191.434L155.808 192.177L153.44 193.544L154.308 194.045L153.106 194.739L152.238 194.238L150.714 195.117L149.427 194.374ZM160.637 200.846L167.983 196.605L165.336 196.233L166.751 195.417L169.379 195.799L170.673 196.545L161.93 201.592L160.637 200.846ZM165.82 203.831L166.955 203.183L174.174 203.411C174.753 203.432 175.22 203.402 175.576 203.323C175.937 203.246 176.24 203.136 176.487 202.993C176.799 202.814 177.009 202.613 177.119 202.391C177.232 202.166 177.24 201.942 177.143 201.718C177.046 201.493 176.839 201.29 176.524 201.108C176.2 200.921 175.834 200.798 175.425 200.74C175.024 200.681 174.627 200.684 174.235 200.747C173.842 200.81 173.502 200.927 173.215 201.097L171.916 200.347C172.482 200.02 173.106 199.808 173.786 199.709C174.474 199.611 175.162 199.623 175.85 199.744C176.542 199.864 177.177 200.09 177.756 200.424C178.306 200.742 178.675 201.1 178.861 201.497C179.051 201.892 179.055 202.287 178.873 202.682C178.695 203.079 178.329 203.437 177.774 203.758C177.374 203.989 176.981 204.155 176.596 204.255C176.212 204.356 175.795 204.414 175.346 204.43C174.897 204.447 174.374 204.445 173.779 204.423L168.218 204.241L168.443 203.95L172.942 206.547L171.733 207.245L165.82 203.831ZM177.288 210.648C176.854 210.398 176.529 210.116 176.31 209.803C176.096 209.487 176 209.161 176.025 208.825C176.053 208.491 176.211 208.168 176.498 207.858L178.065 208.369C177.806 208.654 177.721 208.939 177.81 209.225C177.903 209.507 178.129 209.75 178.49 209.954C178.813 210.136 179.17 210.255 179.558 210.311C179.947 210.367 180.333 210.364 180.718 210.301C181.106 210.235 181.462 210.109 181.786 209.922C182.272 209.642 182.521 209.323 182.533 208.965C182.549 208.61 182.314 208.292 181.829 208.012C181.691 207.932 181.529 207.862 181.343 207.802C181.161 207.743 180.975 207.696 180.784 207.661L181.191 206.74L187.001 206.946L186.771 207.234L182.521 204.78L183.729 204.083L188.987 207.118L187.778 207.816L182.752 207.76L183.152 207.514C183.703 207.832 184.057 208.179 184.215 208.555C184.377 208.929 184.356 209.3 184.154 209.67C183.96 210.039 183.604 210.373 183.085 210.672C182.527 210.995 181.9 211.205 181.203 211.303C180.511 211.403 179.821 211.398 179.133 211.285C178.449 211.176 177.834 210.963 177.288 210.648ZM187.478 216.341L189.002 215.462L185.056 213.183L186.258 212.489L195.116 210.656L196.567 211.494L187.709 213.327L190.204 214.768L192.572 213.401L193.859 214.144L191.491 215.511L192.359 216.012L191.157 216.706L190.289 216.205L188.765 217.084L187.478 216.341Z" fill="white"/>
<path d="M69.0244 123.087C68.3687 122.708 67.9529 122.303 67.7768 121.872C67.6038 121.439 67.6508 121.004 67.918 120.566C68.1881 120.129 68.6617 119.716 69.3386 119.325C70.0155 118.934 70.7319 118.661 71.4878 118.505C72.2467 118.351 72.9995 118.324 73.7463 118.426C74.4961 118.526 75.1988 118.765 75.8545 119.144C76.5071 119.52 76.92 119.925 77.093 120.358C77.2721 120.791 77.2265 121.225 76.9564 121.662C76.6862 122.098 76.2127 122.512 75.5357 122.903C74.8588 123.293 74.1424 123.567 73.3865 123.723C72.6307 123.879 71.8764 123.906 71.1235 123.804C70.3768 123.702 69.6771 123.463 69.0244 123.087ZM69.9305 122.563C70.3889 122.835 70.8761 122.999 71.3922 123.055C71.9143 123.111 72.441 123.075 72.9722 122.947C73.5065 122.818 74.024 122.608 74.5249 122.319C75.0258 122.03 75.3855 121.733 75.604 121.428C75.8256 121.121 75.8863 120.818 75.7862 120.518C75.689 120.22 75.4098 119.937 74.9484 119.667C74.49 119.395 74.0013 119.23 73.4822 119.172C72.9661 119.116 72.441 119.153 71.9067 119.283C71.3724 119.413 70.8534 119.621 70.3495 119.908C69.8456 120.196 69.4828 120.493 69.2612 120.8C69.0426 121.105 68.9834 121.407 69.0836 121.706C69.1868 122.008 69.4691 122.294 69.9305 122.563ZM73.712 125.635L80.2688 121.85L81.2205 122.399L75.5606 125.666L78.5294 127.38L77.6324 127.898L73.712 125.635ZM78.9519 128.66L85.5087 124.875L86.4604 125.424L79.9035 129.209L78.9519 128.66ZM83.2653 131.15L87.6911 126.135L88.6792 126.705L84.8999 130.984L92.3356 128.816L93.3236 129.386L84.6358 131.941L83.2653 131.15ZM87.9999 133.883L94.5568 130.098L95.5084 130.647L88.9516 134.433L87.9999 133.883ZM90.3189 135.222L99.0067 132.667L100.377 133.458L95.9514 138.474L94.9634 137.903L98.984 133.316L99.2299 133.458L91.307 135.793L90.3189 135.222ZM92.9052 135.007L93.7977 134.491L97.2218 136.468L96.3294 136.983L92.9052 135.007ZM99.5021 140.524L106.059 136.738L108.709 138.268C108.773 138.305 108.849 138.352 108.937 138.41C109.028 138.466 109.108 138.523 109.178 138.581C109.485 138.825 109.664 139.072 109.715 139.322C109.77 139.575 109.712 139.82 109.542 140.058C109.372 140.297 109.111 140.517 108.759 140.721C108.237 141.022 107.653 141.205 107.006 141.27C106.363 141.333 105.727 141.238 105.098 140.984L104.666 140.786L102.808 139.714L100.454 141.073L99.5021 140.524ZM103.336 142.737L104.711 140.45L105.918 140.863L104.424 143.365L103.336 142.737ZM103.709 139.193L105.371 140.153C105.432 140.188 105.502 140.225 105.581 140.263C105.663 140.304 105.745 140.339 105.827 140.368C106.067 140.454 106.306 140.496 106.546 140.495C106.789 140.491 107.017 140.458 107.229 140.395C107.442 140.332 107.628 140.254 107.789 140.161C107.95 140.068 108.084 139.961 108.19 139.84C108.299 139.717 108.355 139.587 108.358 139.448C108.364 139.308 108.293 139.169 108.144 139.03C108.096 138.981 108.037 138.933 107.967 138.886C107.9 138.84 107.836 138.8 107.776 138.765L106.114 137.806L103.709 139.193ZM105.88 144.206L112.437 140.42L113.389 140.97L110.561 142.602L113.84 144.495L116.667 142.862L117.624 143.415L111.067 147.2L110.11 146.648L112.943 145.013L109.664 143.12L106.832 144.755L105.88 144.206ZM114.381 149.113L117.09 147.549L118.721 144.048L119.832 144.689L118.666 147.197L123.01 146.524L124.121 147.165L118.056 148.106L115.346 149.671L114.381 149.113ZM118.655 151.58L125.212 147.795L129.401 150.213L128.504 150.731L125.266 148.862L123.427 149.924L126.118 151.478L125.221 151.996L122.53 150.442L120.503 151.612L123.741 153.481L122.844 153.999L118.655 151.58Z" fill="white"/>
<path d="M186.893 191.132C186.447 190.875 186.149 190.591 186 190.281C185.855 189.969 185.855 189.657 186 189.345C186.149 189.035 186.447 188.751 186.893 188.493L189.151 187.189C189.597 186.932 190.089 186.76 190.627 186.674C191.167 186.59 191.706 186.591 192.243 186.677C192.783 186.761 193.277 186.932 193.723 187.189C194.169 187.447 194.465 187.732 194.611 188.044C194.759 188.354 194.759 188.664 194.611 188.974C194.465 189.286 194.169 189.571 193.723 189.829L191.464 191.132C191.018 191.39 190.525 191.561 189.985 191.645C189.447 191.731 188.908 191.732 188.368 191.648C187.831 191.562 187.339 191.39 186.893 191.132ZM187.803 190.607C188.046 190.747 188.324 190.841 188.637 190.888C188.955 190.935 189.273 190.936 189.588 190.891C189.907 190.843 190.189 190.749 190.435 190.607L192.821 189.229C193.064 189.089 193.225 188.928 193.304 188.746C193.386 188.562 193.384 188.378 193.299 188.196C193.22 188.014 193.06 187.853 192.817 187.712C192.574 187.572 192.293 187.479 191.974 187.431C191.662 187.384 191.346 187.384 191.027 187.431C190.712 187.477 190.432 187.57 190.189 187.71L187.803 189.087C187.558 189.229 187.394 189.392 187.312 189.576C187.233 189.758 187.233 189.941 187.312 190.123C187.397 190.305 187.561 190.466 187.803 190.607ZM193.159 194.75C192.734 194.505 192.452 194.226 192.312 193.914C192.176 193.6 192.183 193.284 192.335 192.965C192.49 192.648 192.792 192.36 193.241 192.1L195.331 190.894C195.808 190.619 196.325 190.434 196.884 190.339C197.445 190.246 198.002 190.244 198.555 190.331C199.11 190.421 199.619 190.598 200.08 190.865C200.426 191.065 200.686 191.29 200.859 191.54C201.032 191.791 201.1 192.055 201.064 192.332L199.716 192.305C199.752 192.141 199.724 191.977 199.629 191.814C199.541 191.651 199.391 191.508 199.179 191.385C198.905 191.228 198.6 191.127 198.263 191.083C197.93 191.037 197.599 191.041 197.271 191.093C196.946 191.148 196.664 191.244 196.424 191.383L195.222 192.077L195.245 191.848C195.679 191.815 196.107 191.837 196.529 191.916C196.951 191.995 197.321 192.127 197.64 192.311C198.046 192.545 198.314 192.81 198.441 193.104C198.575 193.399 198.57 193.692 198.427 193.985C198.288 194.279 198.015 194.544 197.608 194.779C197.198 195.015 196.723 195.171 196.183 195.244C195.648 195.318 195.111 195.312 194.571 195.228C194.036 195.144 193.566 194.985 193.159 194.75ZM194.074 194.222C194.311 194.358 194.584 194.449 194.894 194.495C195.204 194.541 195.513 194.541 195.823 194.495C196.132 194.449 196.406 194.358 196.642 194.222C196.879 194.085 197.037 193.927 197.116 193.748C197.198 193.571 197.199 193.394 197.121 193.215C197.042 193.036 196.884 192.878 196.647 192.742C196.41 192.605 196.136 192.513 195.823 192.466C195.513 192.42 195.204 192.42 194.894 192.466C194.584 192.511 194.311 192.602 194.074 192.739C193.841 192.874 193.684 193.031 193.605 193.21C193.526 193.388 193.525 193.568 193.601 193.748C193.68 193.927 193.838 194.085 194.074 194.222ZM205.368 194.07L206.328 194.624L198.023 197.4L197.062 196.845L205.368 194.07ZM201.237 199.251L202.089 198.764L207.503 198.935C207.937 198.951 208.287 198.929 208.555 198.869C208.825 198.812 209.052 198.729 209.238 198.622C209.471 198.487 209.629 198.337 209.711 198.17C209.796 198.002 209.802 197.834 209.729 197.665C209.657 197.497 209.502 197.345 209.265 197.208C209.022 197.068 208.747 196.976 208.441 196.932C208.14 196.888 207.843 196.89 207.548 196.937C207.254 196.985 206.999 197.072 206.783 197.2L205.809 196.638C206.234 196.392 206.701 196.233 207.211 196.159C207.727 196.086 208.243 196.094 208.76 196.185C209.279 196.275 209.755 196.445 210.189 196.695C210.602 196.934 210.878 197.202 211.018 197.5C211.161 197.796 211.164 198.092 211.027 198.388C210.894 198.686 210.619 198.955 210.203 199.195C209.902 199.369 209.608 199.493 209.32 199.569C209.031 199.644 208.719 199.688 208.382 199.7C208.045 199.712 207.653 199.711 207.207 199.695L203.036 199.558L203.204 199.34L206.578 201.288L205.672 201.811L201.237 199.251ZM209.815 204.208L210.958 203.548L207.998 201.839L208.9 201.319L215.543 199.944L216.631 200.572L209.988 201.947L211.859 203.027L213.635 202.002L214.6 202.559L212.825 203.585L213.476 203.96L212.574 204.481L211.923 204.105L210.78 204.765L209.815 204.208Z" fill="white"/>
<g clip-path="url(#clip4_463_33551)">
<path d="M365.186 189.399C364.141 191.65 362.088 193.703 359.234 195.351C356.379 196.998 352.823 198.184 348.924 198.787M359.82 188.366C359.005 190.122 357.403 191.723 355.177 193.008C352.95 194.294 350.177 195.218 347.135 195.689M354.762 187.343C354.158 188.621 352.983 189.788 351.356 190.728C349.729 191.667 347.707 192.345 345.493 192.694M349.574 186.395C349.277 187.236 348.57 187.999 347.535 188.597C346.5 189.194 345.178 189.602 343.72 189.774" stroke="white" stroke-width="2.25328" stroke-linecap="round"/>
</g>
</g>
<path d="M175.108 61.4538L384.563 182.372C392.735 187.09 392.735 194.74 384.563 199.458L270.729 265.174C262.556 269.893 249.305 269.893 241.132 265.175L31.6766 144.257C23.5038 139.538 23.5046 131.888 31.6775 127.17L145.512 61.4538C153.684 56.7357 166.935 56.7357 175.108 61.4538Z" stroke="url(#paint3_linear_463_33551)" stroke-opacity="0.3" stroke-width="0.876275"/>
</g>
<foreignObject x="5.60481" y="-5.25768" width="415.546" height="254.982"><div xmlns="http://www.w3.org/1999/xhtml" style="backdrop-filter:blur(5.26px);clip-path:url(#bgblur_6_463_33551_clip_path);height:100%;width:100%"></div></foreignObject><g filter="url(#filter3_d_463_33551)" data-figma-bg-blur-radius="10.5153">
<g clip-path="url(#clip5_463_33551)">
<path d="M145.132 14.0198C153.514 9.1806 167.105 9.18059 175.487 14.0198L384.942 134.938C393.325 139.777 393.324 147.623 384.942 152.462L271.108 218.179C262.726 223.018 249.135 223.018 240.752 218.179L31.2977 97.2605C22.9152 92.4213 22.9152 84.5754 31.2977 79.7362L145.132 14.0198Z" fill="url(#paint4_linear_463_33551)"/>
<g filter="url(#filter4_f_463_33551)">
<path opacity="0.3" d="M99.5981 26.2869C133.128 6.93001 187.491 6.93001 221.021 26.2869L160.31 61.3356L99.5981 26.2869Z" fill="#EE46BC"/>
<path opacity="0.3" d="M221.021 26.2869C254.551 45.6437 254.551 77.0274 221.021 96.3843L160.309 61.3356L221.021 26.2869Z" fill="#EF6820"/>
<path opacity="0.3" d="M99.5986 26.2869L160.31 61.3356L99.5986 96.3843C66.0686 77.0274 66.0686 45.6437 99.5986 26.2869Z" fill="#2E90FA"/>
<path opacity="0.3" d="M160.31 61.3356L221.021 96.3843C187.491 115.741 133.128 115.741 99.5981 96.3843L160.31 61.3356Z" fill="#17B26A"/>
</g>
<path d="M243.029 180.939C244.705 179.972 247.424 179.972 249.1 180.939L277.432 197.295C279.109 198.263 279.109 199.832 277.432 200.8L259.219 211.315C257.542 212.283 254.824 212.283 253.147 211.315L224.815 194.959C223.139 193.991 223.139 192.422 224.815 191.454L243.029 180.939Z" fill="white" fill-opacity="0.1"/>
<path opacity="0.5" d="M262.809 194.73C266.598 196.917 266.634 200.443 262.89 202.604C259.146 204.766 253.039 204.745 249.25 202.557C247.551 201.576 246.609 200.326 246.422 199.051C244.213 198.942 242.048 198.4 240.349 197.419C236.56 195.231 236.523 191.705 240.267 189.544C244.012 187.382 250.119 187.404 253.908 189.591C255.607 190.572 256.549 191.821 256.737 193.096C258.945 193.204 261.11 193.749 262.809 194.73Z" fill="white"/>
<path opacity="0.5" d="M262.809 194.729C266.598 196.917 266.635 200.443 262.891 202.604C259.147 204.766 253.039 204.745 249.25 202.557C247.551 201.576 246.61 200.326 246.422 199.051C249.14 199.184 251.925 198.658 253.99 197.466C256.056 196.274 256.968 194.665 256.737 193.096C258.946 193.205 261.11 193.749 262.809 194.729Z" fill="white"/>
<path d="M256.736 193.096C256.967 194.665 256.055 196.273 253.99 197.465C251.924 198.658 249.14 199.185 246.422 199.051C246.191 197.482 247.103 195.875 249.169 194.682C251.234 193.49 254.018 192.963 256.736 193.096Z" fill="white"/>
<path d="M46.4828 87.7299L53.8289 83.489L51.1818 83.1175L52.5964 82.3009L55.2252 82.6829L56.5184 83.4294L47.7759 88.4764L46.4828 87.7299ZM51.666 90.7152L52.8013 90.0668L60.0199 90.2946C60.5987 90.3156 61.0662 90.2864 61.4223 90.207C61.7826 90.1299 62.0861 90.02 62.333 89.8775C62.6447 89.6976 62.8551 89.4966 62.9644 89.2747C63.0777 89.0504 63.0858 88.8261 62.9887 88.6017C62.8916 88.3774 62.6851 88.1741 62.3694 87.9919C62.0456 87.805 61.6794 87.6823 61.2706 87.6239C60.8699 87.5655 60.4732 87.5678 60.0806 87.6309C59.688 87.694 59.348 87.8108 59.0607 87.9814L57.7614 87.2313C58.3281 86.9042 58.9514 86.6916 59.6313 86.5934C60.3194 86.4953 61.0075 86.507 61.6955 86.6285C62.3877 86.7477 63.0231 86.9743 63.6019 87.3084C64.1523 87.6262 64.5206 87.9837 64.7068 88.3809C64.8971 88.7758 64.9011 89.1707 64.719 89.5656C64.5409 89.9628 64.1746 90.3215 63.6201 90.6416C63.2194 90.8729 62.8268 91.0388 62.4423 91.1393C62.0578 91.2397 61.6409 91.2982 61.1916 91.3145C60.7424 91.3309 60.2203 91.3285 59.6253 91.3075L54.0641 91.1252L54.2887 90.8343L58.7875 93.4315L57.5793 94.1289L51.666 90.7152ZM63.1334 97.5316C62.7003 97.2815 62.3745 97 62.1559 96.6869C61.9414 96.3714 61.8463 96.0455 61.8706 95.709C61.8989 95.3749 62.0567 95.0524 62.3441 94.7417L63.9105 95.2534C63.6514 95.5384 63.5664 95.8235 63.6555 96.1086C63.7486 96.3913 63.9752 96.6343 64.3354 96.8376C64.6592 97.0198 65.0154 97.139 65.404 97.1951C65.7925 97.2512 66.1791 97.2477 66.5636 97.1846C66.9521 97.1191 67.3083 96.993 67.6321 96.806C68.1178 96.5257 68.3667 96.2067 68.3788 95.8492C68.395 95.4941 68.1603 95.1763 67.6746 94.8959C67.537 94.8164 67.3751 94.7463 67.1889 94.6856C67.0067 94.6272 66.8206 94.5804 66.6303 94.5454L67.0371 93.6236L72.8472 93.8304L72.6165 94.1178L68.3667 91.6644L69.5748 90.9669L74.8325 94.0021L73.6243 94.6996L68.5974 94.6435L68.9981 94.3982C69.5485 94.716 69.9027 95.063 70.0605 95.4391C70.2224 95.813 70.2022 96.1845 69.9998 96.5537C69.8055 96.9229 69.4494 97.257 68.9313 97.5561C68.3728 97.8785 67.7454 98.0888 67.0492 98.187C66.3571 98.2874 65.6671 98.2816 64.979 98.1694C64.295 98.0596 63.6798 97.847 63.1334 97.5316ZM73.324 103.225L74.8478 102.346L70.9016 100.067L72.1037 99.3735L80.9615 97.5404L82.4125 98.3781L73.5547 100.211L76.0499 101.652L78.4177 100.285L79.7047 101.028L77.337 102.395L78.2052 102.896L77.0031 103.59L76.1349 103.089L74.6111 103.968L73.324 103.225ZM84.5341 109.697L91.8802 105.456L89.2332 105.085L90.6478 104.268L93.2766 104.65L94.5698 105.396L85.8273 110.444L84.5341 109.697ZM89.7174 112.682L90.8527 112.034L98.0713 112.262C98.6501 112.283 99.1176 112.253 99.4737 112.174C99.8339 112.097 100.138 111.987 100.384 111.845C100.696 111.665 100.907 111.464 101.016 111.242C101.129 111.017 101.137 110.793 101.04 110.569C100.943 110.344 100.737 110.141 100.421 109.959C100.097 109.772 99.7307 109.649 99.3219 109.591C98.9213 109.533 98.5246 109.535 98.132 109.598C97.7394 109.661 97.3994 109.778 97.112 109.948L95.8128 109.198C96.3795 108.871 97.0028 108.659 97.6827 108.561C98.3708 108.462 99.0589 108.474 99.7469 108.596C100.439 108.715 101.074 108.941 101.653 109.276C102.204 109.593 102.572 109.951 102.758 110.348C102.948 110.743 102.952 111.138 102.77 111.533C102.592 111.93 102.226 112.289 101.671 112.609C101.271 112.84 100.878 113.006 100.494 113.106C100.109 113.207 99.6923 113.265 99.243 113.282C98.7938 113.298 98.2716 113.296 97.6767 113.275L92.1155 113.092L92.3401 112.801L96.8388 115.399L95.6307 116.096L89.7174 112.682ZM101.185 119.499C100.752 119.249 100.426 118.967 100.207 118.654C99.9928 118.339 99.8977 118.013 99.9219 117.676C99.9503 117.342 100.108 117.02 100.395 116.709L101.962 117.22C101.703 117.506 101.618 117.791 101.707 118.076C101.8 118.358 102.027 118.601 102.387 118.805C102.711 118.987 103.067 119.106 103.455 119.162C103.844 119.218 104.23 119.215 104.615 119.152C105.003 119.086 105.36 118.96 105.683 118.773C106.169 118.493 106.418 118.174 106.43 117.816C106.446 117.461 106.212 117.143 105.726 116.863C105.588 116.784 105.426 116.713 105.24 116.653C105.058 116.594 104.872 116.548 104.682 116.512L105.088 115.591L110.899 115.797L110.668 116.085L106.418 113.631L107.626 112.934L112.884 115.969L111.676 116.667L106.649 116.611L107.049 116.365C107.6 116.683 107.954 117.03 108.112 117.406C108.274 117.78 108.254 118.152 108.051 118.521C107.857 118.89 107.501 119.224 106.983 119.523C106.424 119.846 105.797 120.056 105.101 120.154C104.409 120.255 103.718 120.249 103.03 120.137C102.346 120.027 101.731 119.814 101.185 119.499ZM111.375 125.192L112.899 124.313L108.953 122.035L110.155 121.341L119.013 119.507L120.464 120.345L111.606 122.178L114.101 123.619L116.469 122.252L117.756 122.995L115.388 124.362L116.257 124.863L115.054 125.557L114.186 125.056L112.662 125.935L111.375 125.192ZM122.586 131.664L129.932 127.423L127.285 127.052L128.699 126.235L131.328 126.617L132.621 127.364L123.879 132.411L122.586 131.664ZM127.769 134.649L128.904 134.001L136.123 134.229C136.701 134.25 137.169 134.221 137.525 134.141C137.885 134.064 138.189 133.954 138.436 133.812C138.747 133.632 138.958 133.431 139.067 133.209C139.181 132.984 139.189 132.76 139.091 132.536C138.994 132.312 138.788 132.108 138.472 131.926C138.148 131.739 137.782 131.616 137.373 131.558C136.973 131.5 136.576 131.502 136.183 131.565C135.791 131.628 135.451 131.745 135.163 131.916L133.864 131.165C134.431 130.838 135.054 130.626 135.734 130.528C136.422 130.429 137.11 130.441 137.798 130.563C138.49 130.682 139.126 130.908 139.705 131.243C140.255 131.56 140.623 131.918 140.81 132.315C141 132.71 141.004 133.105 140.822 133.5C140.644 133.897 140.277 134.256 139.723 134.576C139.322 134.807 138.93 134.973 138.545 135.073C138.161 135.174 137.744 135.232 137.294 135.249C136.845 135.265 136.323 135.263 135.728 135.242L130.167 135.059L130.392 134.768L134.89 137.366L133.682 138.063L127.769 134.649ZM139.236 141.466C138.803 141.216 138.477 140.934 138.259 140.621C138.044 140.306 137.949 139.98 137.973 139.643C138.002 139.309 138.16 138.987 138.447 138.676L140.013 139.188C139.754 139.473 139.669 139.758 139.758 140.043C139.851 140.325 140.078 140.568 140.438 140.772C140.762 140.954 141.118 141.073 141.507 141.129C141.895 141.185 142.282 141.182 142.666 141.119C143.055 141.053 143.411 140.927 143.735 140.74C144.221 140.46 144.469 140.141 144.482 139.783C144.498 139.428 144.263 139.11 143.777 138.83C143.64 138.751 143.478 138.68 143.292 138.62C143.11 138.561 142.923 138.515 142.733 138.48L143.14 137.558L148.95 137.765L148.719 138.052L144.469 135.599L145.678 134.901L150.935 137.936L149.727 138.634L144.7 138.578L145.101 138.332C145.651 138.65 146.005 138.997 146.163 139.373C146.325 139.747 146.305 140.119 146.103 140.488C145.908 140.857 145.552 141.191 145.034 141.49C144.476 141.813 143.848 142.023 143.152 142.121C142.46 142.222 141.77 142.216 141.082 142.104C140.398 141.994 139.783 141.781 139.236 141.466ZM149.427 147.159L150.951 146.28L147.004 144.002L148.206 143.308L157.064 141.475L158.515 142.312L149.657 144.145L152.153 145.586L154.52 144.219L155.808 144.962L153.44 146.329L154.308 146.83L153.106 147.524L152.238 147.023L150.714 147.902L149.427 147.159ZM160.637 153.631L167.983 149.39L165.336 149.019L166.751 148.202L169.379 148.584L170.673 149.331L161.93 154.378L160.637 153.631ZM165.82 156.616L166.955 155.968L174.174 156.196C174.753 156.217 175.22 156.188 175.576 156.108C175.937 156.031 176.24 155.921 176.487 155.779C176.799 155.599 177.009 155.398 177.119 155.176C177.232 154.952 177.24 154.727 177.143 154.503C177.046 154.279 176.839 154.075 176.524 153.893C176.2 153.706 175.834 153.583 175.425 153.525C175.024 153.467 174.627 153.469 174.235 153.532C173.842 153.595 173.502 153.712 173.215 153.883L171.916 153.133C172.482 152.805 173.106 152.593 173.786 152.495C174.474 152.397 175.162 152.408 175.85 152.53C176.542 152.649 177.177 152.876 177.756 153.21C178.306 153.527 178.675 153.885 178.861 154.282C179.051 154.677 179.055 155.072 178.873 155.467C178.695 155.864 178.329 156.223 177.774 156.543C177.374 156.774 176.981 156.94 176.596 157.04C176.212 157.141 175.795 157.199 175.346 157.216C174.897 157.232 174.374 157.23 173.779 157.209L168.218 157.026L168.443 156.736L172.942 159.333L171.733 160.03L165.82 156.616ZM177.288 163.433C176.854 163.183 176.529 162.901 176.31 162.588C176.096 162.273 176 161.947 176.025 161.61C176.053 161.276 176.211 160.954 176.498 160.643L178.065 161.155C177.806 161.44 177.721 161.725 177.81 162.01C177.903 162.292 178.129 162.536 178.49 162.739C178.813 162.921 179.17 163.04 179.558 163.096C179.947 163.152 180.333 163.149 180.718 163.086C181.106 163.02 181.462 162.894 181.786 162.707C182.272 162.427 182.521 162.108 182.533 161.75C182.549 161.395 182.314 161.077 181.829 160.797C181.691 160.718 181.529 160.648 181.343 160.587C181.161 160.528 180.975 160.482 180.784 160.447L181.191 159.525L187.001 159.732L186.771 160.019L182.521 157.566L183.729 156.868L188.987 159.903L187.778 160.601L182.752 160.545L183.152 160.299C183.703 160.617 184.057 160.964 184.215 161.34C184.377 161.714 184.356 162.086 184.154 162.455C183.96 162.824 183.604 163.158 183.085 163.457C182.527 163.78 181.9 163.99 181.203 164.088C180.511 164.189 179.821 164.183 179.133 164.071C178.449 163.961 177.834 163.748 177.288 163.433ZM187.478 169.127L189.002 168.247L185.056 165.969L186.258 165.275L195.116 163.442L196.567 164.279L187.709 166.112L190.204 167.553L192.572 166.186L193.859 166.929L191.491 168.296L192.359 168.797L191.157 169.491L190.289 168.99L188.765 169.87L187.478 169.127Z" fill="white"/>
<path d="M66.4245 74.213L72.9813 70.4277L73.933 70.9771L71.1053 72.6095L74.3837 74.5021L77.2114 72.8697L78.1676 73.4218L71.6107 77.207L70.6545 76.655L73.4867 75.02L70.2083 73.1274L67.3761 74.7624L66.4245 74.213ZM75.9452 79.867C75.2895 79.4885 74.8736 79.0837 74.6976 78.6526C74.5245 78.2197 74.5716 77.7842 74.8387 77.3461C75.1089 76.9098 75.5824 76.4962 76.2594 76.1054C76.9363 75.7146 77.6527 75.4412 78.4085 75.2853C79.1674 75.1311 79.9203 75.1048 80.667 75.2064C81.4168 75.3063 82.1195 75.5455 82.7752 75.924C83.4279 76.3008 83.8407 76.7056 84.0137 77.1385C84.1928 77.5713 84.1473 78.0059 83.8771 78.4423C83.607 78.8786 83.1334 79.2922 82.4565 79.683C81.7796 80.0738 81.0632 80.3472 80.3073 80.5032C79.5514 80.6591 78.7971 80.6863 78.0443 80.5846C77.2975 80.483 76.5978 80.2438 75.9452 79.867ZM76.8513 79.3439C77.3097 79.6155 77.7969 79.7794 78.3129 79.8355C78.835 79.8916 79.3617 79.8556 79.8929 79.7277C80.4272 79.598 80.9448 79.3886 81.4456 79.0995C81.9465 78.8103 82.3062 78.5133 82.5248 78.2083C82.7464 77.9017 82.8071 77.5985 82.7069 77.2988C82.6098 77.0009 82.3305 76.717 81.8691 76.4471C81.4107 76.1755 80.922 76.0108 80.4029 75.953C79.8869 75.8969 79.3617 75.9337 78.8275 76.0634C78.2932 76.193 77.7741 76.4016 77.2702 76.689C76.7663 76.9764 76.4036 77.2734 76.182 77.5801C75.9634 77.885 75.9042 78.1873 76.0044 78.487C76.1076 78.7884 76.3899 79.074 76.8513 79.3439ZM80.5417 82.3628L87.0985 78.5776L89.1521 79.7631C89.2128 79.7982 89.3236 79.8639 89.4845 79.9603C89.6484 80.0584 89.7956 80.1574 89.9261 80.2573C90.3754 80.5903 90.6228 80.9451 90.6683 81.3219C90.7169 81.7004 90.597 82.0763 90.3086 82.4496C90.0233 82.8211 89.6028 83.1672 89.0473 83.4879C88.4888 83.8104 87.8862 84.0548 87.2396 84.2213C86.5961 84.386 85.9465 84.4544 85.2908 84.4263C84.6412 84.3983 84.028 84.2546 83.4513 83.9952C83.2782 83.9199 83.1067 83.8349 82.9367 83.7403C82.7698 83.6474 82.6559 83.5834 82.5952 83.5484L80.5417 82.3628ZM82.4222 82.4023L83.5013 83.0253C83.6045 83.0849 83.7305 83.1541 83.8793 83.2329C84.028 83.3118 84.1661 83.3775 84.2936 83.4301C84.6913 83.586 85.1056 83.6588 85.5367 83.6483C85.9738 83.6377 86.4064 83.565 86.8344 83.4301C87.2624 83.2951 87.6631 83.1199 88.0365 82.9043C88.422 82.6818 88.7286 82.447 88.9563 82.1999C89.187 81.951 89.3084 81.7022 89.3205 81.4533C89.3387 81.2045 89.2143 80.9679 88.9472 80.7436C88.8591 80.6682 88.7438 80.5876 88.6011 80.5018C88.4645 80.4159 88.3461 80.344 88.2459 80.2862L87.1668 79.6632L82.4222 82.4023ZM86.6513 85.89L95.3391 83.3349L96.7097 84.1261L92.2838 89.1416L91.2958 88.5712L95.3164 83.9842L95.5623 84.1261L87.6394 86.4604L86.6513 85.89ZM89.2376 85.6744L90.1301 85.1592L93.5542 87.1359L92.6618 87.6512L89.2376 85.6744ZM97.4692 92.1351L103.129 88.8677L100.948 87.6086L101.845 87.0907L107.159 90.1584L106.262 90.6762L104.081 89.4171L98.4208 92.6845L97.4692 92.1351ZM101.153 94.2616L109.841 91.7066L111.211 92.4978L106.785 97.5133L105.797 96.9428L109.818 92.3558L110.064 92.4978L102.141 94.832L101.153 94.2616ZM103.739 94.0461L104.631 93.5309L108.056 95.5076L107.163 96.0228L103.739 94.0461ZM108.057 98.2477L114.614 94.4625L117.264 95.9923C117.328 96.0291 117.404 96.0765 117.492 96.1343C117.583 96.1904 117.664 96.2473 117.733 96.3051C118.04 96.5487 118.219 96.7958 118.271 97.0464C118.325 97.2988 118.268 97.5441 118.098 97.7825C117.928 98.0208 117.667 98.2416 117.314 98.4449C116.792 98.7463 116.208 98.9294 115.561 98.9943C114.918 99.0574 114.282 98.9618 113.654 98.7077L113.221 98.5106L111.363 97.4381L109.009 98.7971L108.057 98.2477ZM111.891 100.461L113.267 98.1741L114.473 98.5868L112.98 101.089L111.891 100.461ZM112.265 96.9176L113.927 97.8771C113.987 97.9121 114.057 97.9489 114.136 97.9875C114.218 98.0278 114.3 98.0628 114.382 98.0926C114.622 98.1785 114.862 98.2206 115.102 98.2188C115.344 98.2153 115.572 98.182 115.785 98.1189C115.997 98.0558 116.184 97.9779 116.345 97.885C116.505 97.7921 116.639 97.6852 116.745 97.5643C116.855 97.4416 116.911 97.311 116.914 97.1726C116.92 97.0324 116.848 96.8931 116.7 96.7546C116.651 96.7056 116.592 96.6574 116.522 96.6101C116.455 96.5645 116.392 96.5242 116.331 96.4892L114.669 95.5297L112.265 96.9176ZM113.98 101.667L122.668 99.112L124.039 99.9032L119.613 104.919L118.625 104.348L122.645 99.7613L122.891 99.9032L114.968 102.237L113.98 101.667ZM116.567 101.451L117.459 100.936L120.883 102.913L119.991 103.428L116.567 101.451Z" fill="white"/>
<path d="M186.893 143.918C186.447 143.66 186.149 143.376 186 143.066C185.855 142.754 185.855 142.442 186 142.13C186.149 141.82 186.447 141.536 186.893 141.278L189.151 139.975C189.597 139.717 190.089 139.545 190.627 139.459C191.167 139.375 191.706 139.376 192.243 139.462C192.783 139.546 193.277 139.717 193.723 139.975C194.169 140.232 194.465 140.517 194.611 140.829C194.759 141.139 194.759 141.449 194.611 141.759C194.465 142.071 194.169 142.356 193.723 142.614L191.464 143.918C191.018 144.175 190.525 144.346 189.985 144.43C189.447 144.516 188.908 144.517 188.368 144.433C187.831 144.347 187.339 144.175 186.893 143.918ZM187.803 143.392C188.046 143.532 188.324 143.626 188.637 143.673C188.955 143.72 189.273 143.721 189.588 143.676C189.907 143.628 190.189 143.534 190.435 143.392L192.821 142.014C193.064 141.874 193.225 141.713 193.304 141.531C193.386 141.347 193.384 141.164 193.299 140.981C193.22 140.799 193.06 140.638 192.817 140.498C192.574 140.358 192.293 140.264 191.974 140.216C191.662 140.169 191.346 140.169 191.027 140.216C190.712 140.262 190.432 140.355 190.189 140.495L187.803 141.872C187.558 142.014 187.394 142.177 187.312 142.361C187.233 142.544 187.233 142.726 187.312 142.908C187.397 143.09 187.561 143.252 187.803 143.392ZM193.159 147.535C192.734 147.29 192.452 147.011 192.312 146.699C192.176 146.386 192.183 146.069 192.335 145.75C192.49 145.433 192.792 145.145 193.241 144.885L195.331 143.679C195.808 143.404 196.325 143.219 196.884 143.124C197.445 143.031 198.002 143.029 198.555 143.116C199.11 143.206 199.619 143.384 200.08 143.65C200.426 143.85 200.686 144.075 200.859 144.326C201.032 144.576 201.1 144.84 201.064 145.117L199.716 145.09C199.752 144.926 199.724 144.762 199.629 144.599C199.541 144.436 199.391 144.293 199.179 144.17C198.905 144.013 198.6 143.912 198.263 143.868C197.93 143.823 197.599 143.826 197.271 143.879C196.946 143.933 196.664 144.029 196.424 144.168L195.222 144.862L195.245 144.633C195.679 144.6 196.107 144.623 196.529 144.701C196.951 144.78 197.321 144.912 197.64 145.096C198.046 145.331 198.314 145.595 198.441 145.89C198.575 146.184 198.57 146.478 198.427 146.77C198.288 147.065 198.015 147.329 197.608 147.564C197.198 147.801 196.723 147.956 196.183 148.029C195.648 148.103 195.111 148.098 194.571 148.014C194.036 147.929 193.566 147.77 193.159 147.535ZM194.074 147.007C194.311 147.143 194.584 147.235 194.894 147.28C195.204 147.326 195.513 147.326 195.823 147.28C196.132 147.235 196.406 147.143 196.642 147.007C196.879 146.87 197.037 146.712 197.116 146.534C197.198 146.357 197.199 146.179 197.121 146C197.042 145.821 196.884 145.664 196.647 145.527C196.41 145.39 196.136 145.298 195.823 145.251C195.513 145.205 195.204 145.205 194.894 145.251C194.584 145.296 194.311 145.388 194.074 145.524C193.841 145.659 193.684 145.816 193.605 145.995C193.526 146.173 193.525 146.353 193.601 146.534C193.68 146.712 193.838 146.87 194.074 147.007ZM205.368 146.855L206.328 147.409L198.023 150.185L197.062 149.631L205.368 146.855ZM201.237 152.036L202.089 151.549L207.503 151.72C207.937 151.736 208.287 151.714 208.555 151.655C208.825 151.597 209.052 151.514 209.238 151.407C209.471 151.273 209.629 151.122 209.711 150.955C209.796 150.787 209.802 150.619 209.729 150.451C209.657 150.282 209.502 150.13 209.265 149.993C209.022 149.853 208.747 149.761 208.441 149.717C208.14 149.673 207.843 149.675 207.548 149.723C207.254 149.77 206.999 149.857 206.783 149.985L205.809 149.423C206.234 149.177 206.701 149.018 207.211 148.944C207.727 148.871 208.243 148.88 208.76 148.971C209.279 149.06 209.755 149.23 210.189 149.481C210.602 149.719 210.878 149.987 211.018 150.285C211.161 150.581 211.164 150.877 211.027 151.174C210.894 151.471 210.619 151.74 210.203 151.981C209.902 152.154 209.608 152.278 209.32 152.354C209.031 152.429 208.719 152.473 208.382 152.485C208.045 152.497 207.653 152.496 207.207 152.48L203.036 152.343L203.204 152.125L206.578 154.073L205.672 154.596L201.237 152.036ZM209.815 156.993L210.958 156.333L207.998 154.624L208.9 154.104L215.543 152.729L216.631 153.357L209.988 154.732L211.859 155.812L213.635 154.787L214.6 155.345L212.825 156.37L213.476 156.746L212.574 157.266L211.923 156.89L210.78 157.55L209.815 156.993Z" fill="white"/>
<path d="M163.453 28.4L165.053 29.3236L159.284 32.6542C158.651 33.0193 157.946 33.2541 157.167 33.3586C156.39 33.4649 155.599 33.4408 154.791 33.2865C153.986 33.1305 153.224 32.845 152.505 32.4302C151.784 32.0136 151.288 31.573 151.018 31.1084C150.751 30.642 150.709 30.1848 150.893 29.7368C151.077 29.2887 151.485 28.8821 152.117 28.517L157.887 25.1864L159.486 26.1099L153.851 29.3634C153.483 29.5758 153.236 29.8115 153.109 30.0703C152.986 30.3309 152.99 30.5939 153.122 30.8594C153.257 31.1233 153.527 31.3722 153.933 31.6062C154.338 31.8402 154.769 31.9962 155.226 32.0742C155.689 32.1522 156.145 32.1547 156.593 32.0817C157.042 32.0086 157.45 31.8659 157.818 31.6535L163.453 28.4ZM163.334 34.0463L159.453 36.2866L157.892 35.3855L164.515 31.562L166.007 32.4233L164.882 33.073L164.959 33.1178C165.482 32.9917 166.02 32.9618 166.572 33.0282C167.127 33.0962 167.651 33.273 168.146 33.5584C168.603 33.8223 168.903 34.1085 169.047 34.4172C169.194 34.7275 169.175 35.0437 168.991 35.3656C168.81 35.6892 168.453 36.0029 167.922 36.3066L163.705 38.741L162.144 37.8399L166.119 35.5448C166.562 35.2893 166.793 35.0229 166.813 34.7458C166.836 34.4703 166.647 34.2164 166.244 33.9841C165.971 33.8264 165.668 33.721 165.334 33.6679C165.007 33.6148 164.67 33.6182 164.325 33.6779C163.983 33.7393 163.653 33.8621 163.334 34.0463ZM175.222 37.7429L174.014 38.4398L170.207 36.2418L171.414 35.5448L175.222 37.7429ZM173.941 35.1714L175.502 36.0726L169.284 39.6621C169.074 39.7832 168.945 39.8944 168.896 39.9956C168.853 40.0969 168.864 40.1898 168.931 40.2744C168.997 40.3591 169.094 40.4387 169.224 40.5134C169.321 40.5698 169.418 40.6171 169.513 40.6553C169.61 40.6951 169.687 40.7242 169.741 40.7424L168.784 41.5987C168.672 41.5672 168.521 41.5166 168.331 41.4469C168.144 41.3788 167.937 41.2826 167.71 41.1581C167.308 40.9391 167.015 40.7017 166.831 40.4462C166.65 40.189 166.605 39.9276 166.697 39.6621C166.792 39.3982 167.048 39.1476 167.465 38.9103L173.941 35.1714ZM169.904 42.32L176.527 38.4965L178.088 39.3976L171.465 43.2211L169.904 42.32ZM178.252 38.4069C178.005 38.2641 177.874 38.094 177.859 37.8966C177.848 37.6974 177.959 37.5306 178.191 37.3962C178.427 37.2601 178.716 37.1963 179.058 37.2045C179.403 37.2112 179.699 37.2859 179.946 37.4286C180.196 37.573 180.326 37.7439 180.334 37.9414C180.349 38.1389 180.238 38.3056 180.002 38.4417C179.77 38.5761 179.481 38.64 179.136 38.6334C178.797 38.6267 178.502 38.5512 178.252 38.4069ZM183 42.2335L181.793 42.9305L177.986 40.7324L179.193 40.0355L183 42.2335ZM181.72 39.6621L183.281 40.5632L177.063 44.1527C176.853 44.2738 176.724 44.385 176.675 44.4862C176.632 44.5875 176.643 44.6804 176.709 44.765C176.775 44.8497 176.873 44.9293 177.002 45.004C177.1 45.0604 177.196 45.1077 177.291 45.1459C177.389 45.1857 177.465 45.2148 177.52 45.233L176.563 46.0893C176.45 46.0578 176.3 46.0072 176.11 45.9375C175.923 45.8694 175.716 45.7732 175.489 45.6487C175.086 45.4297 174.793 45.1924 174.609 44.9368C174.428 44.6796 174.384 44.4182 174.476 44.1527C174.571 43.8888 174.826 43.6382 175.243 43.4009L181.72 39.6621ZM188.217 42.6958L179.386 47.7938L177.825 46.8927L186.656 41.7947L188.217 42.6958ZM183.794 50.4878C183.13 50.1045 182.694 49.6938 182.487 49.2557C182.286 48.8176 182.31 48.377 182.56 47.9339C182.813 47.4891 183.286 47.0668 183.979 46.6668C184.66 46.2735 185.388 46.003 186.161 45.8553C186.94 45.7076 187.707 45.6861 188.463 45.7906C189.222 45.8935 189.918 46.1275 190.55 46.4926C190.959 46.7282 191.278 46.9888 191.508 47.2742C191.743 47.5596 191.864 47.8617 191.87 48.1803C191.878 48.5006 191.752 48.8292 191.49 49.166C191.232 49.5013 190.812 49.8365 190.231 50.1717L189.753 50.448L184.324 47.314L185.376 46.7067L189.309 48.9769C189.605 48.8026 189.806 48.6118 189.912 48.4043C190.021 48.1952 190.03 47.9861 189.938 47.777C189.849 47.5696 189.655 47.3796 189.356 47.207C189.037 47.0228 188.679 46.9058 188.282 46.856C187.889 46.8046 187.499 46.812 187.114 46.8784C186.734 46.9448 186.395 47.0626 186.096 47.2319L185.178 47.7621C184.793 47.9845 184.532 48.216 184.397 48.4566C184.265 48.6956 184.252 48.9304 184.359 49.1611C184.468 49.3901 184.692 49.6025 185.031 49.7983C185.258 49.9294 185.495 50.0298 185.743 50.0995C185.993 50.1676 186.249 50.2041 186.51 50.209C186.772 50.214 187.03 50.1825 187.286 50.1145L188.58 51.0504C188.103 51.2197 187.591 51.3126 187.045 51.3292C186.504 51.3458 185.955 51.2844 185.398 51.145C184.843 51.0039 184.308 50.7849 183.794 50.4878ZM190.53 54.3618C190.01 54.0614 189.678 53.7154 189.534 53.3237C189.39 52.9321 189.453 52.5205 189.724 52.0891C189.994 51.6576 190.493 51.2319 191.22 50.8121C191.956 50.3872 192.697 50.0985 193.445 49.9458C194.198 49.7931 194.911 49.7616 195.583 49.8512C196.259 49.9392 196.851 50.13 197.36 50.4237C197.748 50.6478 198.001 50.8702 198.119 51.0909C198.24 51.3099 198.281 51.5149 198.244 51.7057C198.209 51.8949 198.152 52.0592 198.071 52.1986L198.136 52.2359L201.439 50.3292L203.004 51.2328L194.173 56.3308L192.638 55.4446L193.682 54.8422L193.587 54.7874C193.346 54.8339 193.058 54.8654 192.725 54.882C192.394 54.8969 192.041 54.8687 191.664 54.7974C191.287 54.726 190.909 54.5808 190.53 54.3618ZM192.246 53.8739C192.577 54.0647 192.947 54.1759 193.359 54.2074C193.772 54.2373 194.201 54.1941 194.643 54.078C195.086 53.9618 195.522 53.7801 195.95 53.5328C196.378 53.2856 196.69 53.0358 196.886 52.7836C197.084 52.533 197.154 52.2899 197.097 52.0542C197.042 51.8202 196.847 51.6061 196.511 51.412C196.163 51.2112 195.782 51.0958 195.368 51.066C194.954 51.0361 194.528 51.0793 194.092 51.1954C193.655 51.3116 193.231 51.4883 192.82 51.7256C192.406 51.9646 192.095 52.2119 191.888 52.4674C191.687 52.723 191.609 52.9719 191.655 53.2142C191.707 53.4565 191.904 53.6764 192.246 53.8739ZM196.703 57.9009C196.442 57.7498 196.31 57.5673 196.307 57.3532C196.304 57.1391 196.436 56.9566 196.703 56.8056C196.959 56.6546 197.273 56.5799 197.643 56.5815C198.014 56.5832 198.33 56.6595 198.592 56.8106C198.845 56.9566 198.973 57.1366 198.976 57.3507C198.982 57.5665 198.857 57.7498 198.601 57.9009C198.422 58.0004 198.217 58.066 197.984 58.0975C197.754 58.1307 197.524 58.1307 197.294 58.0975C197.07 58.0643 196.873 57.9988 196.703 57.9009Z" fill="white"/>
<g clip-path="url(#clip7_463_33551)">
<path d="M365.186 142.184C364.141 144.435 362.088 146.488 359.234 148.136C356.379 149.784 352.823 150.969 348.924 151.572M359.82 141.151C359.005 142.907 357.403 144.508 355.177 145.794C352.95 147.079 350.177 148.003 347.135 148.474M354.762 140.128C354.158 141.406 352.983 142.574 351.356 143.513C349.729 144.452 347.707 145.13 345.493 145.479M349.574 139.18C349.277 140.022 348.57 140.785 347.535 141.382C346.5 141.98 345.178 142.387 343.72 142.559" stroke="white" stroke-width="2.25328" stroke-linecap="round"/>
</g>
</g>
<path d="M175.108 14.239L384.563 135.157C392.735 139.876 392.735 147.525 384.563 152.243L270.729 217.96C262.556 222.678 249.305 222.678 241.132 217.96L31.6766 97.0417C23.5038 92.3234 23.5046 84.6736 31.6775 79.9554L145.512 14.239C153.684 9.52083 166.935 9.52082 175.108 14.239Z" stroke="url(#paint5_linear_463_33551)" stroke-opacity="0.5" stroke-width="0.876275"/>
</g>
<defs>
<filter id="filter0_f_463_33551" x="-7.48527" y="123.294" width="431.215" height="268.898" filterUnits="userSpaceOnUse" color-interpolation-filters="sRGB">
<feFlood flood-opacity="0" result="BackgroundImageFix"/>
<feBlend mode="normal" in="SourceGraphic" in2="BackgroundImageFix" result="shape"/>
<feGaussianBlur stdDeviation="11.8037" result="effect1_foregroundBlur_463_33551"/>
</filter>
<filter id="filter1_d_463_33551" x="9.10991" y="94.4297" width="412.041" height="249.724" filterUnits="userSpaceOnUse" color-interpolation-filters="sRGB">
<feFlood flood-opacity="0" result="BackgroundImageFix"/>
<feColorMatrix in="SourceAlpha" type="matrix" values="0 0 0 0 0 0 0 0 0 0 0 0 0 0 0 0 0 0 127 0" result="hardAlpha"/>
<feOffset dx="7.0102" dy="8.76275"/>
<feGaussianBlur stdDeviation="7.0102"/>
<feColorMatrix type="matrix" values="0 0 0 0 0 0 0 0 0 0 0 0 0 0 0 0 0 0 0.05 0"/>
<feBlend mode="normal" in2="BackgroundImageFix" result="effect1_dropShadow_463_33551"/>
<feBlend mode="normal" in="SourceGraphic" in2="effect1_dropShadow_463_33551" result="shape"/>
</filter>
<filter id="filter2_d_463_33551" x="5.60481" y="41.9572" width="415.546" height="254.982" filterUnits="userSpaceOnUse" color-interpolation-filters="sRGB">
<feFlood flood-opacity="0" result="BackgroundImageFix"/>
<feColorMatrix in="SourceAlpha" type="matrix" values="0 0 0 0 0 0 0 0 0 0 0 0 0 0 0 0 0 0 127 0" result="hardAlpha"/>
<feOffset dx="7.0102" dy="8.76275"/>
<feGaussianBlur stdDeviation="7.0102"/>
<feColorMatrix type="matrix" values="0 0 0 0 0 0 0 0 0 0 0 0 0 0 0 0 0 0 0.05 0"/>
<feBlend mode="normal" in2="BackgroundImageFix" result="effect1_dropShadow_463_33551"/>
<feBlend mode="normal" in="SourceGraphic" in2="effect1_dropShadow_463_33551" result="shape"/>
</filter>
<clipPath id="bgblur_3_463_33551_clip_path" transform="translate(-5.60481 -41.9572)"><path d="M145.132 61.2347C153.514 56.3954 167.105 56.3954 175.487 61.2347L384.942 182.153C393.325 186.992 393.324 194.838 384.942 199.677L271.108 265.393C262.726 270.233 249.135 270.233 240.752 265.393L31.2977 144.475C22.9152 139.636 22.9152 131.79 31.2977 126.951L145.132 61.2347Z"/>
</clipPath><filter id="filter3_d_463_33551" x="5.60481" y="-5.25768" width="415.546" height="254.982" filterUnits="userSpaceOnUse" color-interpolation-filters="sRGB">
<feFlood flood-opacity="0" result="BackgroundImageFix"/>
<feColorMatrix in="SourceAlpha" type="matrix" values="0 0 0 0 0 0 0 0 0 0 0 0 0 0 0 0 0 0 127 0" result="hardAlpha"/>
<feOffset dx="7.0102" dy="8.76275"/>
<feGaussianBlur stdDeviation="7.0102"/>
<feColorMatrix type="matrix" values="0 0 0 0 0 0 0 0 0 0 0 0 0 0 0 0 0 0 0.05 0"/>
<feBlend mode="normal" in2="BackgroundImageFix" result="effect1_dropShadow_463_33551"/>
<feBlend mode="normal" in="SourceGraphic" in2="effect1_dropShadow_463_33551" result="shape"/>
</filter>
<clipPath id="bgblur_6_463_33551_clip_path" transform="translate(-5.60481 5.25768)"><path d="M145.132 14.0198C153.514 9.1806 167.105 9.18059 175.487 14.0198L384.942 134.938C393.325 139.777 393.324 147.623 384.942 152.462L271.108 218.179C262.726 223.018 249.135 223.018 240.752 218.179L31.2977 97.2605C22.9152 92.4213 22.9152 84.5754 31.2977 79.7362L145.132 14.0198Z"/>
</clipPath><filter id="filter4_f_463_33551" x="-73.2765" y="-120.925" width="467.172" height="364.521" filterUnits="userSpaceOnUse" color-interpolation-filters="sRGB">
<feFlood flood-opacity="0" result="BackgroundImageFix"/>
<feBlend mode="normal" in="SourceGraphic" in2="BackgroundImageFix" result="shape"/>
<feGaussianBlur stdDeviation="56.0816" result="effect1_foregroundBlur_463_33551"/>
</filter>
<linearGradient id="paint0_linear_463_33551" x1="16.117" y1="182.925" x2="319.805" y2="51.9322" gradientUnits="userSpaceOnUse">
<stop stop-color="#101828"/>
<stop offset="1" stop-color="#475467"/>
</linearGradient>
<linearGradient id="paint1_linear_463_33551" x1="154.221" y1="103.202" x2="184.386" y2="330.851" gradientUnits="userSpaceOnUse">
<stop stop-color="white"/>
<stop offset="1" stop-color="white" stop-opacity="0.2"/>
</linearGradient>
<linearGradient id="paint2_linear_463_33551" x1="154.009" y1="48.8354" x2="78.1365" y2="180.263" gradientUnits="userSpaceOnUse">
<stop stop-color="#FBC2EB"/>
<stop offset="1" stop-color="#A18CD1"/>
</linearGradient>
<linearGradient id="paint3_linear_463_33551" x1="154.221" y1="55.9874" x2="184.386" y2="283.636" gradientUnits="userSpaceOnUse">
<stop stop-color="white"/>
<stop offset="1" stop-color="white" stop-opacity="0.2"/>
</linearGradient>
<linearGradient id="paint4_linear_463_33551" x1="172.29" y1="12.1742" x2="197.247" y2="259.932" gradientUnits="userSpaceOnUse">
<stop stop-color="white" stop-opacity="0.51"/>
<stop offset="1" stop-color="white" stop-opacity="0"/>
</linearGradient>
<linearGradient id="paint5_linear_463_33551" x1="154.221" y1="8.77259" x2="184.386" y2="236.421" gradientUnits="userSpaceOnUse">
<stop stop-color="white"/>
<stop offset="1" stop-color="white" stop-opacity="0.2"/>
</linearGradient>
<clipPath id="clip0_463_33551">
<path d="M145.132 108.45C153.514 103.61 167.105 103.61 175.487 108.449L384.942 229.368C393.325 234.207 393.324 242.053 384.942 246.892L271.108 312.608C262.726 317.448 249.135 317.448 240.752 312.608L31.2977 191.69C22.9152 186.851 22.9152 179.005 31.2977 174.166L145.132 108.45Z" fill="white"/>
</clipPath>
<clipPath id="clip1_463_33551">
<rect width="17.5255" height="21.0306" fill="white" transform="matrix(0.866044 0.499967 -0.866044 0.499967 354.67 229.416)"/>
</clipPath>
<clipPath id="clip2_463_33551">
<path d="M145.132 61.2347C153.514 56.3954 167.105 56.3954 175.487 61.2347L384.942 182.153C393.325 186.992 393.324 194.838 384.942 199.677L271.108 265.393C262.726 270.233 249.135 270.233 240.752 265.393L31.2977 144.475C22.9152 139.636 22.9152 131.79 31.2977 126.951L145.132 61.2347Z" fill="white"/>
</clipPath>
<clipPath id="clip4_463_33551">
<rect width="17.5255" height="21.0306" fill="white" transform="matrix(0.866044 0.499967 -0.866044 0.499967 354.67 182.201)"/>
</clipPath>
<clipPath id="clip5_463_33551">
<path d="M145.132 14.0198C153.514 9.1806 167.105 9.18059 175.487 14.0198L384.942 134.938C393.325 139.777 393.324 147.623 384.942 152.462L271.108 218.179C262.726 223.018 249.135 223.018 240.752 218.179L31.2977 97.2605C22.9152 92.4213 22.9152 84.5754 31.2977 79.7362L145.132 14.0198Z" fill="white"/>
</clipPath>
<clipPath id="clip7_463_33551">
<rect width="17.5255" height="21.0306" fill="white" transform="matrix(0.866044 0.499967 -0.866044 0.499967 354.67 134.986)"/>
</clipPath>
</defs>
</svg>
