<svg width="17" height="19" viewBox="0 0 17 19" fill="none" xmlns="http://www.w3.org/2000/svg">
<path d="M11.6668 4.16683V3.50016C11.6668 2.56674 11.6668 2.10003 11.4852 1.74351C11.3254 1.42991 11.0704 1.17494 10.7568 1.01515C10.4003 0.833496 9.93358 0.833496 9.00016 0.833496H7.66683C6.73341 0.833496 6.2667 0.833496 5.91018 1.01515C5.59658 1.17494 5.34161 1.42991 5.18182 1.74351C5.00016 2.10003 5.00016 2.56674 5.00016 3.50016V4.16683M6.66683 8.75016V12.9168M10.0002 8.75016V12.9168M0.833496 4.16683H15.8335M14.1668 4.16683V13.5002C14.1668 14.9003 14.1668 15.6004 13.8943 16.1351C13.6547 16.6055 13.2722 16.988 12.8018 17.2277C12.267 17.5002 11.567 17.5002 10.1668 17.5002H6.50016C5.10003 17.5002 4.39997 17.5002 3.86519 17.2277C3.39478 16.988 3.01233 16.6055 2.77265 16.1351C2.50016 15.6004 2.50016 14.9003 2.50016 13.5002V4.16683" stroke="#F04438" stroke-width="1.66667" stroke-linecap="round" stroke-linejoin="round"/>
</svg>
