<svg width="24" height="24" viewBox="0 0 24 24" fill="none" xmlns="http://www.w3.org/2000/svg">
<path d="M10.75 13C10.75 13.414 10.414 13.75 10 13.75H6C5.586 13.75 5.25 13.414 5.25 13C5.25 12.586 5.586 12.25 6 12.25H10C10.414 12.25 10.75 12.586 10.75 13ZM6 7.75H12C12.414 7.75 12.75 7.414 12.75 7C12.75 6.586 12.414 6.25 12 6.25H6C5.586 6.25 5.25 6.586 5.25 7C5.25 7.414 5.586 7.75 6 7.75ZM10 9.25H6C5.586 9.25 5.25 9.586 5.25 10C5.25 10.414 5.586 10.75 6 10.75H10C10.414 10.75 10.75 10.414 10.75 10C10.75 9.586 10.414 9.25 10 9.25ZM21.659 8.104C21.521 9.057 21.094 10.944 19.765 12.878C18.77 14.329 17.618 15.298 16.749 15.89V19C16.749 20.517 15.578 21.75 14.139 21.75H4.86C3.421 21.75 2.25 20.517 2.25 19V5C2.25 3.483 3.421 2.25 4.86 2.25H14.139C15.578 2.25 16.749 3.483 16.749 5V5.897C17.086 5.66 17.39 5.472 17.628 5.338C18.316 4.952 20.02 4.122 20.977 4.779C21.93 5.433 21.771 7.322 21.659 8.103V8.104ZM15.25 19V16.724C14.734 16.951 14.111 17.165 13.536 17.165C13.488 17.165 13.445 17.152 13.398 17.149L12.618 18.286C12.472 18.497 12.238 18.611 11.999 18.611C11.853 18.611 11.705 18.568 11.575 18.479C11.234 18.245 11.147 17.778 11.382 17.436L12.164 16.296C11.487 14.81 11.99 11.541 13.855 8.823C14.302 8.172 14.779 7.625 15.25 7.158V5C15.25 4.322 14.741 3.75 14.14 3.75H4.86C4.258 3.75 3.75 4.322 3.75 5V19C3.75 19.678 4.259 20.25 4.86 20.25H14.139C14.741 20.25 15.249 19.678 15.249 19H15.25ZM20.117 6.031C19.472 5.951 16.881 7.063 15.092 9.67C13.871 11.451 13.45 13.31 13.393 14.505L16.192 10.425C16.426 10.086 16.892 9.997 17.235 10.232C17.576 10.466 17.663 10.933 17.428 11.275L14.631 15.352C15.726 14.868 17.31 13.807 18.529 12.03C20.318 9.423 20.41 6.609 20.117 6.031Z" fill="#8A66E8"/>
</svg>
