<svg width="24" height="24" viewBox="0 0 24 24" fill="none" xmlns="http://www.w3.org/2000/svg">
<path d="M24 16.2781L16.5956 12.4134L23.9769 8.56066L22.0092 4.79032L20.9954 5.31944L19.7453 2.92432L14.799 4.41129C13.6846 4.74625 12.7065 5.4243 12 6.33072C11.2935 5.4243 10.3154 4.74625 9.201 4.41129L4.25466 2.92436L3.00455 5.31949L1.99078 4.79036L0.0230625 8.56066L7.40438 12.4134L0 16.2781V21.0755L12 14.8121L24 21.0755V16.2781ZM22.0796 7.96464L15.076 11.6202L13.5196 10.8078L21.4132 6.68768L22.0796 7.96464ZM4.96331 4.60582L8.79614 5.75805C9.90544 6.09147 10.8341 6.87925 11.3441 7.91927L11.5371 8.31283H12.4629L12.6559 7.91927C13.1659 6.87921 14.0946 6.09147 15.2039 5.75805L19.0367 4.60582L19.7488 5.97016L12 10.0146L4.25123 5.97016L4.96331 4.60582ZM1.40625 18.7552V17.1303L8.92392 13.2065L10.4804 14.0189L1.40625 18.7552ZM22.5938 18.7552L1.92037 7.96464L2.58684 6.68768L22.5938 17.1303V18.7552Z" fill="#8A66E8"/>
</svg>
