<svg width="24" height="24" viewBox="0 0 24 24" fill="none" xmlns="http://www.w3.org/2000/svg">
<g clip-path="url(#clip0_314_26235)">
<mask id="mask0_314_26235" style="mask-type:luminance" maskUnits="userSpaceOnUse" x="0" y="0" width="24" height="24">
<path d="M0 0H24V24H0V0Z" fill="white"/>
</mask>
<g mask="url(#mask0_314_26235)">
<path fill-rule="evenodd" clip-rule="evenodd" d="M5.92857 3.42857C4.54786 3.42857 3.42857 4.54786 3.42857 5.92857C3.42857 7.30929 4.54786 8.42857 5.92857 8.42857C7.30929 8.42857 8.42857 7.30929 8.42857 5.92857C8.42857 4.54786 7.30929 3.42857 5.92857 3.42857ZM2 5.92857C2 3.75889 3.75889 2 5.92857 2C8.09826 2 9.85714 3.75889 9.85714 5.92857C9.85714 8.09826 8.09826 9.85714 5.92857 9.85714C3.75889 9.85714 2 8.09826 2 5.92857Z" fill="#8A66E8"/>
<path fill-rule="evenodd" clip-rule="evenodd" d="M18.0711 3.42857C16.6904 3.42857 15.5711 4.54786 15.5711 5.92857C15.5711 7.30929 16.6904 8.42857 18.0711 8.42857C19.4519 8.42857 20.5711 7.30929 20.5711 5.92857C20.5711 4.54786 19.4519 3.42857 18.0711 3.42857ZM14.1426 5.92857C14.1426 3.75889 15.9015 2 18.0711 2C20.2409 2 21.9997 3.75889 21.9997 5.92857C21.9997 8.09826 20.2409 9.85714 18.0711 9.85714C15.9015 9.85714 14.1426 8.09826 14.1426 5.92857Z" fill="#8A66E8"/>
<path fill-rule="evenodd" clip-rule="evenodd" d="M5.57129 2.71429C5.57129 2.3198 5.89109 2 6.28557 2H17.7141C18.1086 2 18.4284 2.3198 18.4284 2.71429C18.4284 3.10877 18.1086 3.42857 17.7141 3.42857H6.28557C5.89109 3.42857 5.57129 3.10877 5.57129 2.71429Z" fill="#8A66E8"/>
<path fill-rule="evenodd" clip-rule="evenodd" d="M7.22852 8.42864C7.22852 8.03416 7.54832 7.71436 7.9428 7.71436H16.0571C16.4515 7.71436 16.7714 8.03416 16.7714 8.42864C16.7714 8.82313 16.4515 9.14293 16.0571 9.14293H7.9428C7.54832 9.14293 7.22852 8.82313 7.22852 8.42864Z" fill="#8A66E8"/>
<path fill-rule="evenodd" clip-rule="evenodd" d="M6.28557 8.41431C6.68006 8.41431 6.99986 8.73411 6.99986 9.12859V21.2857C6.99986 21.6802 6.68006 22 6.28557 22C5.89109 22 5.57129 21.6802 5.57129 21.2857V9.12859C5.57129 8.73411 5.89109 8.41431 6.28557 8.41431Z" fill="#8A66E8"/>
<path fill-rule="evenodd" clip-rule="evenodd" d="M9.85686 12C10.2513 12 10.5711 12.3198 10.5711 12.7143V21.2857C10.5711 21.6801 10.2513 22 9.85686 22C9.46238 22 9.14258 21.6801 9.14258 21.2857V12.7143C9.14258 12.3198 9.46238 12 9.85686 12Z" fill="#8A66E8"/>
<path fill-rule="evenodd" clip-rule="evenodd" d="M14.143 12C14.5375 12 14.8573 12.3198 14.8573 12.7143V21.2857C14.8573 21.6801 14.5375 22 14.143 22C13.7485 22 13.4287 21.6801 13.4287 21.2857V12.7143C13.4287 12.3198 13.7485 12 14.143 12Z" fill="#8A66E8"/>
<path fill-rule="evenodd" clip-rule="evenodd" d="M17.7143 8.41431C18.1087 8.41431 18.4286 8.73411 18.4286 9.12859V21.2857C18.4286 21.6802 18.1087 22 17.7143 22C17.3199 22 17 21.6802 17 21.2857V9.12859C17 8.73411 17.3199 8.41431 17.7143 8.41431Z" fill="#8A66E8"/>
</g>
</g>
<defs>
<clipPath id="clip0_314_26235">
<rect width="24" height="24" fill="white"/>
</clipPath>
</defs>
</svg>
