<svg width="24" height="24" viewBox="0 0 24 24" fill="none" xmlns="http://www.w3.org/2000/svg">
<path fill-rule="evenodd" clip-rule="evenodd" d="M15.6365 5.01715L10.8277 10.9005L8.07782 14.0907L4.25632 13.7433L3.92518 14.7367L7.59542 16.4049L9.26373 20.075L10.2572 19.7438L9.90983 15.9225L13.0999 13.1731L18.9778 8.35744C20.067 7.26005 20.2847 6.11545 20.246 5.24129C20.2262 4.7923 20.1376 4.40983 20.0543 4.14127C20.0376 4.08754 20.0212 4.03871 20.0059 3.99519C19.9623 3.97978 19.9134 3.96339 19.8596 3.94668C19.5908 3.86326 19.2079 3.77443 18.7583 3.75422C17.8829 3.71486 16.7367 3.93138 15.6365 5.01715ZM20.5808 3.42027C21.2513 3.08424 21.2517 3.08497 21.2517 3.08497L21.253 3.08755L21.2551 3.09196L21.261 3.10407C21.2656 3.11359 21.2715 3.126 21.2784 3.1412C21.2924 3.17158 21.3108 3.21319 21.3322 3.26518C21.3751 3.36904 21.4305 3.51516 21.4869 3.69682C21.5992 4.05877 21.7178 4.57024 21.7446 5.17502C21.7988 6.40181 21.4707 7.99336 20.011 9.44562C19.9939 9.46262 19.976 9.47879 19.9573 9.49408L18.4308 10.7447L20.3167 17.9298L17.8145 20.4315C17.6513 20.5946 17.4221 20.6736 17.193 20.6455C16.9639 20.6174 16.7605 20.4854 16.6416 20.2877L13.3983 14.8962L11.4735 16.5551L11.8049 20.1996C11.8364 20.5462 11.6253 20.8689 11.2951 20.979L9.09752 21.7115C8.7334 21.8328 8.33642 21.6597 8.17759 21.3103L6.46266 17.5377L2.6898 15.8228C2.34037 15.664 2.16724 15.267 2.28863 14.9029L3.02115 12.7054C3.13122 12.3752 3.45396 12.1642 3.80056 12.1957L7.44532 12.527L9.10426 10.6024L3.71252 7.35935C3.51474 7.24039 3.38274 7.03699 3.35466 6.80791C3.32658 6.57882 3.40554 6.34956 3.56873 6.18635L6.07051 3.6843L13.2487 5.56823L14.4996 4.03782C14.5155 4.01842 14.5323 3.99983 14.55 3.98212C16.0058 2.52644 17.5986 2.20057 18.8257 2.25573C19.4307 2.28293 19.9423 2.40175 20.3042 2.51412C20.4859 2.57051 20.632 2.62594 20.7359 2.66883C20.7879 2.6903 20.8295 2.70871 20.8599 2.72265C20.8751 2.72962 20.8875 2.73547 20.897 2.74004L20.9091 2.74592L20.9135 2.74809L20.9153 2.74898C20.9153 2.74898 20.9168 2.74974 20.5808 3.42027ZM12.205 6.84511L6.52248 5.35372L5.30785 6.56848L10.0834 9.44086L12.205 6.84511ZM14.5595 13.9165L17.4324 18.6924L18.6473 17.4778L17.1545 11.7904L14.5595 13.9165ZM20.5808 3.42027L20.9168 2.74974L21.1396 2.8614L21.2517 3.08497L20.5808 3.42027Z" fill="#8A66E8"/>
</svg>
