<svg width="24" height="24" viewBox="0 0 24 24" fill="none" xmlns="http://www.w3.org/2000/svg">
<path d="M20.8281 6.72656V5.55469H13.657C13.4802 5.05609 13.0845 4.66043 12.5859 4.48359V2H11.4141V4.48359C10.9155 4.66043 10.5198 5.05609 10.343 5.55469H3.17188V6.72656H4.63672L2 13.0547V13.1719C2 14.7873 3.31426 16.1016 4.92969 16.1016H6.10156C7.71699 16.1016 9.03125 14.7873 9.03125 13.1719V13.0547L6.39453 6.72656H10.343C10.5198 7.22516 10.9155 7.62082 11.4141 7.79766V16.1996C10.2513 16.4366 9.33754 17.3647 9.12031 18.5344C7.76008 18.787 6.72656 19.9817 6.72656 21.4141V22H17.2735V21.4141C17.2735 19.9817 16.24 18.787 14.8797 18.5344C14.6625 17.3646 13.7487 16.4365 12.5859 16.1996V7.79766C13.0845 7.62082 13.4802 7.22516 13.657 6.72656H17.6055L14.9688 13.0547V13.1719C14.9688 14.7873 16.283 16.1016 17.8984 16.1016H19.0703C20.6857 16.1016 22 14.7873 22 13.1719V13.0547L19.3633 6.72656H20.8281ZM5.51562 7.66406L7.56641 12.5859H3.46484L5.51562 7.66406ZM6.10156 14.9297H4.92969C4.16586 14.9297 3.51453 14.4398 3.27266 13.7574H7.75859C7.51672 14.4398 6.86539 14.9297 6.10156 14.9297ZM18.4844 7.66406L20.5352 12.5859H16.4336L18.4844 7.66406ZM19.0703 14.9297H17.8984C17.1346 14.9297 16.4833 14.4398 16.2414 13.7574H20.7273C20.4855 14.4398 19.8341 14.9297 19.0703 14.9297ZM16.0012 20.8281H7.99883C8.24066 20.1461 8.89234 19.6562 9.65625 19.6562H14.3438C15.1077 19.6562 15.7593 20.1461 16.0012 20.8281ZM13.657 18.4844H10.343C10.5848 17.8024 11.2362 17.3125 12 17.3125C12.7639 17.3125 13.4152 17.8024 13.657 18.4844ZM12 6.72656C11.6769 6.72656 11.4141 6.46371 11.4141 6.14062C11.4141 5.81754 11.6769 5.55469 12 5.55469C12.3231 5.55469 12.5859 5.81754 12.5859 6.14062C12.5859 6.46371 12.3231 6.72656 12 6.72656Z" fill="#8A66E8"/>
</svg>
