<svg width="24" height="24" viewBox="0 0 24 24" fill="none" xmlns="http://www.w3.org/2000/svg">
<g clip-path="url(#clip0_314_26208)">
<path d="M21.8905 9.84375C21.3683 9.84375 2.70584 9.84375 2.10936 9.84375C0.946258 9.84375 0 10.79 0 11.9531C0 13.6509 1.20974 15.0713 2.81248 15.398V20.4843C2.81248 22.4228 4.38958 23.9999 6.32808 23.9999H17.6717C19.6102 23.9999 21.1873 22.4228 21.1873 20.4843V15.3979C22.7901 15.0713 23.9998 13.6509 23.9998 11.9531C23.9998 10.79 23.0536 9.84375 21.8905 9.84375ZM1.40624 11.9531C1.40624 11.5654 1.72166 11.25 2.10936 11.25H2.81248V13.9415C1.99409 13.6512 1.40624 12.8697 1.40624 11.9531ZM19.7811 20.4843C19.7811 21.6474 18.8348 22.5937 17.6717 22.5937H6.32808C5.16498 22.5937 4.21872 21.6474 4.21872 20.4843V11.25H19.7811V20.4843ZM21.1873 13.9415V11.2499H21.8905C22.2782 11.2499 22.5936 11.5654 22.5936 11.9531C22.5936 12.8697 22.0057 13.6512 21.1873 13.9415Z" fill="#8A66E8"/>
<path d="M2.92358 8.02764C3.0852 8.38004 3.50229 8.53571 3.85582 8.37357L19.1844 1.34238C19.5374 1.18047 19.6923 0.763101 19.5304 0.410135C19.3684 0.0571691 18.9511 -0.0977047 18.5981 0.0642003L13.4941 2.40535L13.4877 2.39143C12.8392 0.982756 11.1655 0.364245 9.75687 1.01276C8.34814 1.66127 7.72968 3.33493 8.37819 4.7436L8.38138 4.75059L3.26951 7.0954C2.91654 7.2573 2.76167 7.67467 2.92358 8.02764ZM9.65557 4.15556C9.33134 3.45122 9.64057 2.61437 10.3449 2.29014C11.0492 1.9659 11.8861 2.27514 12.2103 2.97947L12.216 2.99166L9.65955 4.16428L9.65557 4.15556Z" fill="#8A66E8"/>
<path d="M19.4931 3.75708C19.4931 3.36877 19.1783 3.05396 18.7899 3.05396C18.6584 3.05396 17.4846 3.07369 16.8012 3.75708C16.1178 4.44047 16.0981 5.61422 16.0981 5.74585C16.0981 5.991 16.0127 6.53442 15.8069 6.74021C15.6121 6.93497 15.0968 7.02914 14.8125 7.03144C14.4242 7.03144 14.1094 7.34625 14.1094 7.73456C14.1094 8.12288 14.4242 8.43769 14.8125 8.43769C14.9441 8.43769 16.1179 8.41795 16.8012 7.73456C17.4846 7.05117 17.5043 5.87742 17.5043 5.74856C17.5066 5.46155 17.6009 4.94621 17.7956 4.75144C17.9903 4.55677 18.5053 4.4626 18.7924 4.46021C19.1796 4.45889 19.4931 4.1446 19.4931 3.75708Z" fill="#8A66E8"/>
<path d="M19.0312 8.43769C19.1628 8.43769 20.3366 8.41795 21.0199 7.73456C21.7033 7.05117 21.723 5.87742 21.723 5.74856C21.7253 5.46155 21.8196 4.94621 22.0143 4.75144C22.209 4.55677 22.724 4.4626 23.0111 4.46021C23.3983 4.45889 23.7118 4.1446 23.7118 3.75708C23.7118 3.36877 23.397 3.05396 23.0087 3.05396C22.8771 3.05396 21.7033 3.07369 21.02 3.75708C20.3365 4.44047 20.3168 5.61422 20.3168 5.74585C20.3168 5.991 20.2314 6.53442 20.0256 6.74021C19.8309 6.93497 19.3155 7.02914 19.0312 7.03144C18.6429 7.03144 18.3281 7.34625 18.3281 7.73456C18.3281 8.12288 18.6429 8.43769 19.0312 8.43769Z" fill="#8A66E8"/>
</g>
<defs>
<clipPath id="clip0_314_26208">
<rect width="24" height="24" fill="white"/>
</clipPath>
</defs>
</svg>
