<svg width="24" height="24" viewBox="0 0 24 24" fill="none" xmlns="http://www.w3.org/2000/svg">
<path d="M10.2823 13.3079C10.2823 12.0303 9.24298 10.991 7.96541 10.991C6.68785 10.991 5.64844 12.0303 5.64844 13.3079H7.05468C7.05468 12.8057 7.46326 12.3972 7.96541 12.3972C8.46757 12.3972 8.8761 12.8057 8.8761 13.3079H10.2823Z" fill="#8A66E8"/>
<path d="M16.0347 10.991C14.7571 10.991 13.7178 12.0303 13.7178 13.3079H15.124C15.124 12.8057 15.5325 12.3972 16.0347 12.3972C16.5369 12.3972 16.9454 12.8057 16.9454 13.3079H18.3517C18.3517 12.0303 17.3123 10.991 16.0347 10.991Z" fill="#8A66E8"/>
<path d="M12 17.4226C11.111 17.4226 10.2774 16.9458 9.82439 16.1783L8.61328 16.8929C9.31792 18.087 10.6156 18.8288 12 18.8288C13.3843 18.8288 14.682 18.087 15.3867 16.8929L14.1756 16.1782C13.7227 16.9458 12.889 17.4226 12 17.4226Z" fill="#8A66E8"/>
<path d="M23.085 10.8173C22.6372 10.37 22.0748 10.0742 21.4644 9.95837C20.1461 5.88458 16.3219 3.07973 12 3.07973H11.5286C10.3965 3.07973 9.47546 2.15866 9.47546 1.02661H8.06922C8.06922 1.79481 8.32122 2.50505 8.74644 3.07973H8.30092C7.16883 3.07973 6.24781 2.15866 6.24781 1.02661H4.84156C4.84156 2.55452 5.83757 3.85333 7.21408 4.3101C5.03702 5.50698 3.33063 7.50175 2.53568 9.95837C1.92524 10.0742 1.3627 10.3701 0.914477 10.8178C0.324763 11.4082 0 12.1926 0 13.0266C0 13.8504 0.31779 14.6276 0.894888 15.2151C1.34591 15.6743 1.91552 15.9773 2.53568 16.0949C3.8539 20.1687 7.6781 22.9735 12 22.9735C16.3219 22.9735 20.1461 20.1687 21.4643 16.0949C22.0845 15.9773 22.6541 15.6743 23.1051 15.2151C23.6822 14.6276 24 13.8504 24 13.0266C24 12.1926 23.6752 11.4082 23.085 10.8173ZM20.9103 14.7432L20.3826 14.7533L20.2449 15.2627C19.241 18.9747 15.8506 21.5672 12 21.5672C8.14928 21.5672 4.75893 18.9747 3.75514 15.2627L3.61735 14.7533L3.08968 14.7432C2.1614 14.7257 1.4062 13.9557 1.4062 13.0266C1.4062 12.5679 1.58487 12.1364 1.90873 11.8122C2.22458 11.4967 2.64397 11.3183 3.08954 11.3099L3.61731 11.3L3.7551 10.7905C4.75893 7.07852 8.14933 4.48602 12 4.48602C13.2709 4.48602 14.3049 5.51998 14.3049 6.7909C14.3049 8.06182 13.2709 9.09583 12 9.09583C10.7291 9.09583 9.69512 8.06187 9.69512 6.79095H8.28887C8.28887 8.83728 9.95367 10.5021 12 10.5021C14.0463 10.5021 15.7111 8.83728 15.7111 6.79095C15.7111 6.20859 15.5759 5.65739 15.3358 5.16638C17.6944 6.1696 19.5468 8.20919 20.2449 10.7905L20.3826 11.3001L20.9104 11.31C21.356 11.3183 21.7754 11.4967 22.0907 11.8117C22.4151 12.1365 22.5938 12.5679 22.5938 13.0267C22.5938 13.9557 21.8386 14.7257 20.9103 14.7432Z" fill="#8A66E8"/>
</svg>
