<svg width="24" height="24" viewBox="0 0 24 24" fill="none" xmlns="http://www.w3.org/2000/svg">
<g clip-path="url(#clip0_314_26291)">
<path d="M7.83888 3.88382V16.6592C7.09549 15.9961 6.1159 15.5923 5.04363 15.5923C2.72567 15.5923 0.839844 17.4782 0.839844 19.7962C0.839844 22.1142 2.72567 24 5.04363 24C7.35874 24 9.24259 22.1189 9.24737 19.8049H9.24747V9.53787L21.7517 6.36814V13.2679C21.0083 12.6048 20.0287 12.201 18.9565 12.201C16.6385 12.201 14.7526 14.0868 14.7526 16.4048C14.7526 18.7228 16.6385 20.6086 18.9565 20.6086C21.2744 20.6086 23.1603 18.7228 23.1603 16.4048V0L7.83888 3.88382ZM5.04368 22.5914C3.50243 22.5914 2.24848 21.3375 2.24848 19.7961C2.24848 18.2548 3.50239 17.0009 5.04368 17.0009C6.58497 17.0009 7.83892 18.2548 7.83892 19.7961C7.83888 21.3375 6.58497 22.5914 5.04368 22.5914ZM9.24747 8.0848V4.9799L21.7517 1.81022V4.91507L9.24747 8.0848ZM18.9565 19.2001C17.4152 19.2001 16.1612 17.9461 16.1612 16.4048C16.1612 14.8636 17.4151 13.6096 18.9565 13.6096C20.4977 13.6096 21.7517 14.8635 21.7517 16.4048C21.7517 17.9462 20.4978 19.2001 18.9565 19.2001Z" fill="#8A66E8"/>
</g>
<defs>
<clipPath id="clip0_314_26291">
<rect width="24" height="24" fill="white"/>
</clipPath>
</defs>
</svg>
