<svg width="24" height="24" viewBox="0 0 24 24" fill="none" xmlns="http://www.w3.org/2000/svg">
<g clip-path="url(#clip0_314_26378)">
<path d="M20.4853 3.51473C18.2188 1.24823 15.2053 0 12 0C8.79469 0 5.78123 1.24823 3.51469 3.51473C1.24823 5.78123 0 8.79469 0 12C0 15.2053 1.24823 18.2188 3.51469 20.4853C5.78123 22.7518 8.79469 24 12 24C15.2053 24 18.2188 22.7518 20.4853 20.4853C22.7518 18.2188 24 15.2053 24 12C24 8.79469 22.7518 5.78123 20.4853 3.51473ZM22.5805 12.5343C21.1418 13.6527 19.5483 14.5309 17.8389 15.1462C17.0828 15.4185 16.3109 15.6355 15.5272 15.7989C15.5506 14.6412 16.0465 13.4901 16.9876 12.4792C19.3897 9.89934 20.2276 7.32009 20.5155 5.69466C21.8646 7.50858 22.5938 9.69825 22.5938 12C22.5938 12.1788 22.5893 12.357 22.5805 12.5343ZM14.6098 18.2028C15.1902 19.5361 16.2275 20.5934 17.3882 21.1256C15.9712 21.9656 14.3747 22.4614 12.7031 22.5702V17.5552C13.2499 17.5345 13.7934 17.4904 14.3329 17.4227C14.4064 17.687 14.4987 17.9476 14.6098 18.2028ZM9.8078 14.9597C9.60755 13.7216 9.01331 12.5647 8.04159 11.521C6.24628 9.59278 5.44613 7.6747 5.091 6.40519C4.80938 5.3985 4.75453 4.62788 4.74567 4.28039C6.54647 2.58553 8.84058 1.58967 11.2969 1.42978V16.1495C10.8209 16.131 10.3476 16.0929 9.87764 16.0359C9.88814 15.6765 9.8655 15.3164 9.8078 14.9597ZM14.1222 16.0316C13.6523 16.0896 13.1791 16.1288 12.7031 16.1483V1.42978C15.1594 1.58967 17.4535 2.58553 19.2543 4.28044C19.2454 4.62797 19.1906 5.39859 18.909 6.40519C18.5538 7.6747 17.7536 9.59278 15.9584 11.521C14.9866 12.5647 14.3925 13.7216 14.1922 14.9597C14.1347 15.315 14.112 15.6737 14.1222 16.0316ZM9.66591 17.4269C10.2058 17.4935 10.7497 17.5367 11.2969 17.5563V22.5702C9.62531 22.4613 8.02889 21.9655 6.61186 21.1255C7.77253 20.5934 8.80983 19.5361 9.39023 18.2027C9.50067 17.949 9.59255 17.6897 9.66591 17.4269ZM3.48445 5.6947C3.77245 7.32009 4.61039 9.89939 7.01236 12.4793C7.95553 13.4924 8.4517 14.6461 8.47312 15.8064C7.68431 15.6438 6.90741 15.4268 6.14648 15.1539C4.44417 14.5436 2.85623 13.6728 1.42125 12.5637C1.4115 12.3766 1.40625 12.1887 1.40625 12C1.40625 9.69825 2.13544 7.50858 3.48445 5.6947ZM1.69945 14.4894C2.93958 15.3081 4.26961 15.9749 5.67188 16.4777C6.52017 16.7818 7.38666 17.0221 8.26655 17.1997C8.21925 17.3478 8.1645 17.4953 8.1008 17.6415C7.51317 18.9916 6.29887 19.9897 5.15742 20.0876C4.93463 19.8984 4.71806 19.6999 4.50909 19.4909C3.10894 18.0907 2.14969 16.3674 1.69945 14.4894ZM19.4909 19.4909C19.2819 19.6999 19.0654 19.8984 18.8426 20.0876C17.7012 19.9897 16.4869 18.9916 15.8992 17.6415C15.8345 17.493 15.779 17.3432 15.7312 17.1927C16.6075 17.0143 17.4704 16.7735 18.3152 16.4694C19.7253 15.9617 21.0619 15.2882 22.3073 14.4612C21.8599 16.3502 20.8981 18.0837 19.4909 19.4909Z" fill="#8A66E8"/>
</g>
<defs>
<clipPath id="clip0_314_26378">
<rect width="24" height="24" fill="white"/>
</clipPath>
</defs>
</svg>
