<svg width="24" height="24" viewBox="0 0 24 24" fill="none" xmlns="http://www.w3.org/2000/svg">
<path d="M15.7118 7.96704H10.7448C10.307 7.96704 9.95215 8.32185 9.95215 8.75966C9.95215 9.19743 10.307 9.55228 10.7448 9.55228H15.7118C16.1498 9.55228 16.5044 9.19747 16.5044 8.75966C16.5043 8.32185 16.1495 7.96704 15.7118 7.96704Z" fill="#8A66E8"/>
<path d="M17.614 11.7979H10.7448C10.307 11.7979 9.95215 12.1527 9.95215 12.5905C9.95215 13.0282 10.307 13.3831 10.7448 13.3831H17.614C18.0518 13.3831 18.4066 13.0283 18.4066 12.5905C18.4066 12.1527 18.0518 11.7979 17.614 11.7979Z" fill="#8A66E8"/>
<path d="M21.2074 3H7.17832C6.74055 3 6.3857 3.3548 6.3857 3.79262V11.2695H4.98547C3.33922 11.2695 2 12.609 2 14.255V18.6671C2 20.3134 3.33922 21.6526 4.98547 21.6526C5.1202 21.6526 5.25285 21.6436 5.38258 21.6262H18.4597C20.4116 21.6262 22 20.038 22 18.0859V3.79262C22 3.3548 21.6452 3 21.2074 3ZM6.38574 18.6671C6.38574 19.3464 5.89934 19.9144 5.25656 20.0409H4.98551V20.0673C4.21324 20.0673 3.58523 19.4391 3.58523 18.6671V14.255C3.58523 13.483 4.21352 12.8547 4.98551 12.8547H6.38578L6.38574 18.6671ZM20.4148 18.0859C20.4148 19.1456 19.5197 20.0409 18.4597 20.0409H7.63566C7.84992 19.6296 7.97094 19.1622 7.97094 18.6671V4.5852H20.4148V18.0859Z" fill="#8A66E8"/>
<path d="M15.7118 15.3914H10.7448C10.307 15.3914 9.95215 15.7462 9.95215 16.184C9.95215 16.6217 10.307 16.9766 10.7448 16.9766H15.7118C16.1498 16.9766 16.5044 16.6218 16.5044 16.184C16.5043 15.7462 16.1495 15.3914 15.7118 15.3914Z" fill="#8A66E8"/>
</svg>
