<svg width="24" height="24" viewBox="0 0 24 24" fill="none" xmlns="http://www.w3.org/2000/svg">
<path d="M18.5 22.75H5.5C4.50576 22.7489 3.55255 22.3535 2.84952 21.6505C2.14649 20.9474 1.75106 19.9942 1.75 19V9C1.75106 8.00576 2.14649 7.05255 2.84952 6.34952C3.55255 5.64649 4.50576 5.25106 5.5 5.25H18.5C19.4942 5.25106 20.4474 5.64649 21.1505 6.34952C21.8535 7.05255 22.2489 8.00576 22.25 9V19C22.2489 19.9942 21.8535 20.9474 21.1505 21.6505C20.4474 22.3535 19.4942 22.7489 18.5 22.75ZM5.5 6.75C4.90343 6.75053 4.33144 6.98775 3.90959 7.40959C3.48775 7.83144 3.25053 8.40343 3.25 9V19C3.25053 19.5966 3.48775 20.1686 3.90959 20.5904C4.33144 21.0122 4.90343 21.2495 5.5 21.25H18.5C19.0966 21.2495 19.6686 21.0122 20.0904 20.5904C20.5122 20.1686 20.7495 19.5966 20.75 19V9C20.7495 8.40343 20.5122 7.83144 20.0904 7.40959C19.6686 6.98775 19.0966 6.75053 18.5 6.75H5.5Z" fill="#8A66E8"/>
<path d="M11 17.5071C10.7701 17.5072 10.5424 17.462 10.3299 17.3741C10.1175 17.2861 9.92446 17.1571 9.76192 16.9945C9.59938 16.8318 9.4705 16.6388 9.38266 16.4263C9.29482 16.2138 9.24974 15.986 9.25 15.7561V12.2431C9.25001 11.9448 9.32629 11.6514 9.47159 11.3908C9.61688 11.1303 9.82638 10.9112 10.0802 10.7544C10.334 10.5976 10.6236 10.5083 10.9217 10.4949C11.2197 10.4816 11.5162 10.5446 11.783 10.6781L14.794 12.1841C15.0681 12.3211 15.3015 12.5277 15.4707 12.7833C15.6399 13.0388 15.7391 13.3343 15.7582 13.6402C15.7773 13.9461 15.7158 14.2516 15.5798 14.5263C15.4437 14.8009 15.2379 15.035 14.983 15.2051L11.971 17.2121C11.6836 17.4042 11.3457 17.5069 11 17.5071ZM11 11.9921C10.9536 11.9923 10.9083 12.0055 10.869 12.0301C10.8322 12.052 10.8019 12.0833 10.781 12.1207C10.7601 12.1581 10.7494 12.2003 10.75 12.2431V15.7561C10.7489 15.8017 10.7607 15.8466 10.784 15.8857C10.8074 15.9248 10.8414 15.9565 10.882 15.9771C10.9215 15.9999 10.9668 16.0108 11.0124 16.0085C11.058 16.0062 11.102 15.9908 11.139 15.9641L14.15 13.9571C14.1863 13.9327 14.2156 13.8993 14.235 13.8601C14.2544 13.8209 14.2632 13.7773 14.2606 13.7337C14.258 13.69 14.244 13.6478 14.22 13.6112C14.1961 13.5746 14.163 13.545 14.124 13.5251L11.112 12.0201C11.0773 12.0023 11.039 11.9927 11 11.9921Z" fill="#8A66E8"/>
<path d="M11.9998 6.75009C11.9013 6.75033 11.8038 6.73101 11.7128 6.69325C11.6218 6.65548 11.5392 6.60002 11.4698 6.53009L7.46985 2.53009C7.33737 2.38792 7.26524 2.19987 7.26867 2.00557C7.2721 1.81127 7.35081 1.62588 7.48822 1.48847C7.62564 1.35106 7.81102 1.27234 8.00532 1.26892C8.19963 1.26549 8.38767 1.33761 8.52985 1.47009L11.9998 4.93909L15.4698 1.47009C15.612 1.33761 15.8001 1.26549 15.9944 1.26892C16.1887 1.27234 16.3741 1.35106 16.5115 1.48847C16.6489 1.62588 16.7276 1.81127 16.731 2.00557C16.7344 2.19987 16.6623 2.38792 16.5298 2.53009L12.5298 6.53009C12.4605 6.60002 12.3779 6.65548 12.2869 6.69325C12.1959 6.73101 12.0984 6.75033 11.9998 6.75009Z" fill="#8A66E8"/>
</svg>
