<svg width="36" height="36" viewBox="0 0 36 36" fill="none" xmlns="http://www.w3.org/2000/svg">
<path d="M15 27H6C5.1 27 4.5 26.4 4.5 25.5C4.5 24.6 5.1 24 6 24H15C15.9 24 16.5 24.6 16.5 25.5C16.5 26.4 15.9 27 15 27Z" fill="white"/>
<path d="M19.5 19.5H6C5.1 19.5 4.5 18.9 4.5 18C4.5 17.1 5.1 16.5 6 16.5H19.5C20.4 16.5 21 17.1 21 18C21 18.9 20.4 19.5 19.5 19.5Z" fill="white"/>
<path d="M27 30C26.1 30 25.5 29.4 25.5 28.5V16.5C25.5 15.6 26.1 15 27 15C27.9 15 28.5 15.6 28.5 16.5V28.5C28.5 29.4 27.9 30 27 30Z" fill="white"/>
<path d="M27 30C26.55 30 26.25 29.85 25.95 29.55L21.45 25.05C20.85 24.45 20.85 23.55 21.45 22.95C22.05 22.35 22.95 22.35 23.55 22.95L27 26.4L30.45 22.95C31.05 22.35 31.95 22.35 32.55 22.95C33.15 23.55 33.15 24.45 32.55 25.05L28.05 29.55C27.75 29.85 27.45 30 27 30Z" fill="white"/>
<path d="M24 12H6C5.1 12 4.5 11.4 4.5 10.5C4.5 9.6 5.1 9 6 9H24C24.9 9 25.5 9.6 25.5 10.5C25.5 11.4 24.9 12 24 12Z" fill="white"/>
</svg>
