<svg width="19" height="15" viewBox="0 0 19 15" fill="none" xmlns="http://www.w3.org/2000/svg">
<path d="M12.4997 11.6666L14.9997 9.16665M14.9997 9.16665L17.4997 11.6666M14.9997 9.16665V14.1666M17.4997 4.99998H0.833008M17.4997 6.66665V3.49998C17.4997 2.56656 17.4997 2.09985 17.318 1.74333C17.1582 1.42973 16.9033 1.17476 16.5897 1.01497C16.2331 0.833313 15.7664 0.833313 14.833 0.833313H3.49968C2.56625 0.833313 2.09954 0.833313 1.74302 1.01497C1.42942 1.17476 1.17445 1.42973 1.01466 1.74333C0.833008 2.09985 0.833008 2.56656 0.833008 3.49998V9.83331C0.833008 10.7667 0.833008 11.2334 1.01466 11.59C1.17445 11.9036 1.42942 12.1585 1.74302 12.3183C2.09954 12.5 2.56625 12.5 3.49967 12.5H9.16634" stroke="#CECFD2" stroke-width="1.66667" stroke-linecap="round" stroke-linejoin="round"/>
</svg>
