<svg width="22" height="20" viewBox="0 0 22 20" fill="none" xmlns="http://www.w3.org/2000/svg">
<path d="M10.4506 1.83735C10.6811 1.37041 10.7963 1.13694 10.9528 1.06235C11.0889 0.997447 11.2471 0.997447 11.3832 1.06235C11.5396 1.13694 11.6549 1.37041 11.8854 1.83735L14.072 6.26732C14.1401 6.40517 14.1741 6.47409 14.2238 6.52761C14.2678 6.57499 14.3206 6.61338 14.3793 6.64065C14.4455 6.67146 14.5216 6.68257 14.6737 6.70481L19.565 7.41974C20.08 7.49502 20.3376 7.53267 20.4568 7.65847C20.5604 7.76792 20.6092 7.91833 20.5895 8.06781C20.5668 8.23961 20.3803 8.42121 20.0074 8.78441L16.4694 12.2305C16.3591 12.3379 16.304 12.3916 16.2684 12.4555C16.2369 12.5121 16.2167 12.5742 16.2089 12.6385C16.2001 12.7112 16.2131 12.787 16.2391 12.9388L17.0739 17.8061C17.162 18.3195 17.206 18.5762 17.1233 18.7285C17.0513 18.8611 16.9233 18.954 16.775 18.9815C16.6046 19.0131 16.3741 18.8919 15.9131 18.6494L11.5403 16.3499C11.4041 16.2782 11.336 16.2424 11.2642 16.2283C11.2007 16.2159 11.1353 16.2159 11.0718 16.2283C11 16.2424 10.9319 16.2782 10.7956 16.3499L6.42289 18.6494C5.96188 18.8919 5.73138 19.0131 5.56094 18.9815C5.41265 18.954 5.28469 18.8611 5.21271 18.7285C5.12997 18.5762 5.17399 18.3195 5.26204 17.8061L6.09685 12.9388C6.12288 12.787 6.13589 12.7112 6.12709 12.6385C6.11929 12.5742 6.09908 12.5121 6.06757 12.4555C6.03199 12.3916 5.97685 12.3379 5.86655 12.2305L2.32853 8.78441C1.95563 8.42121 1.76918 8.23961 1.7465 8.06781C1.72675 7.91833 1.77552 7.76792 1.87922 7.65847C1.9984 7.53267 2.25594 7.49502 2.77101 7.41974L7.66228 6.70481C7.81439 6.68257 7.89045 6.67146 7.95669 6.64065C8.01533 6.61338 8.06813 6.57499 8.11215 6.52761C8.16188 6.47409 8.1959 6.40517 8.26394 6.26732L10.4506 1.83735Z" stroke="#555962" stroke-width="2" stroke-linecap="round" stroke-linejoin="round"/>
</svg>
