<svg width="32" height="32" viewBox="0 0 32 32" fill="none" xmlns="http://www.w3.org/2000/svg">
<rect width="32" height="32" rx="16" fill="#2D0F7A"/>
<path d="M12.1363 15.0386C11.817 13.8464 12.0579 12.5355 12.8589 11.5225M19.8633 15.0386C20.1826 13.8464 19.9417 12.5354 19.1407 11.5225M9.56106 15.7331C9.00242 13.65 9.47013 11.3489 10.9642 9.63062M22.4363 15.7331C22.9949 13.65 22.5272 11.3489 21.0332 9.63064M15.9998 18V14M11.6665 20.3334H14.3332M11.4665 22.6667H20.5332C21.2799 22.6667 21.6533 22.6667 21.9385 22.5214C22.1894 22.3935 22.3933 22.1896 22.5212 21.9387C22.6665 21.6535 22.6665 21.2801 22.6665 20.5334V20.1334C22.6665 19.3866 22.6665 19.0133 22.5212 18.728C22.3933 18.4772 22.1894 18.2732 21.9385 18.1454C21.6533 18 21.2799 18 20.5332 18H11.4665C10.7198 18 10.3464 18 10.0612 18.1454C9.81029 18.2732 9.60631 18.4772 9.47848 18.728C9.33316 19.0133 9.33316 19.3866 9.33316 20.1334V20.5334C9.33316 21.2801 9.33316 21.6535 9.47848 21.9387C9.60631 22.1896 9.81029 22.3935 10.0612 22.5214C10.3464 22.6667 10.7198 22.6667 11.4665 22.6667Z" stroke="#C9B8F4" stroke-linecap="round" stroke-linejoin="round"/>
</svg>
