<svg width="19" height="18" viewBox="0 0 19 18" fill="none" xmlns="http://www.w3.org/2000/svg">
<path d="M8.70843 0.837349C8.93892 0.37041 9.05416 0.136941 9.21061 0.062347C9.34673 -0.00255318 9.50487 -0.00255318 9.64099 0.062347C9.79744 0.136941 9.91268 0.37041 10.1432 0.837349L12.3298 5.26732C12.3979 5.40517 12.4319 5.47409 12.4816 5.52761C12.5257 5.57499 12.5785 5.61338 12.6371 5.64065C12.7033 5.67146 12.7794 5.68257 12.9315 5.70481L17.8228 6.41974C18.3378 6.49502 18.5954 6.53267 18.7146 6.65847C18.8183 6.76792 18.867 6.91833 18.8473 7.06781C18.8246 7.23961 18.6382 7.42121 18.2653 7.78441L14.7272 11.2305C14.6169 11.3379 14.5618 11.3916 14.5262 11.4555C14.4947 11.5121 14.4745 11.5742 14.4667 11.6385C14.4579 11.7112 14.4709 11.787 14.4969 11.9388L15.3317 16.8061C15.4198 17.3195 15.4638 17.5762 15.3811 17.7285C15.3091 17.8611 15.1811 17.954 15.0328 17.9815C14.8624 18.0131 14.6319 17.8919 14.1709 17.6494L9.79816 15.3499C9.66191 15.2782 9.59379 15.2424 9.52202 15.2283C9.45848 15.2159 9.39312 15.2159 9.32957 15.2283C9.2578 15.2424 9.18968 15.2782 9.05344 15.3499L4.6807 17.6494C4.2197 17.8919 3.98919 18.0131 3.81875 17.9815C3.67046 17.954 3.5425 17.8611 3.47052 17.7285C3.38778 17.5762 3.43181 17.3195 3.51986 16.8061L4.35467 11.9388C4.38069 11.787 4.39371 11.7112 4.3849 11.6385C4.3771 11.5742 4.35689 11.5121 4.32539 11.4555C4.2898 11.3916 4.23466 11.3379 4.12437 11.2305L0.586341 7.78441C0.213444 7.42121 0.0269959 7.23961 0.00430753 7.06781C-0.0154326 6.91833 0.0333348 6.76792 0.137032 6.65847C0.256216 6.53267 0.513753 6.49502 1.02882 6.41974L5.92009 5.70481C6.07221 5.68257 6.14826 5.67146 6.2145 5.64065C6.27315 5.61338 6.32594 5.57499 6.36997 5.52761C6.41969 5.47409 6.45371 5.40517 6.52175 5.26732L8.70843 0.837349Z" fill="#FEC84B"/>
</svg>
