<svg width="32" height="32" viewBox="0 0 32 32" fill="none" xmlns="http://www.w3.org/2000/svg">
<rect width="32" height="32" rx="16" fill="#912018"/>
<path d="M18.6663 20L20.6663 18M20.6663 18L22.6663 20M20.6663 18V22M22.6663 14.6666H9.33301M22.6663 16V13.4666C22.6663 12.7199 22.6663 12.3465 22.521 12.0613C22.3932 11.8104 22.1892 11.6065 21.9383 11.4786C21.6531 11.3333 21.2797 11.3333 20.533 11.3333H11.4663C10.7196 11.3333 10.3462 11.3333 10.061 11.4786C9.81014 11.6065 9.60616 11.8104 9.47833 12.0613C9.33301 12.3465 9.33301 12.7199 9.33301 13.4666V18.5333C9.33301 19.28 9.33301 19.6534 9.47833 19.9386C9.60616 20.1895 9.81014 20.3935 10.061 20.5213C10.3462 20.6666 10.7196 20.6666 11.4663 20.6666H15.9997" stroke="#FEE4E2" stroke-linecap="round" stroke-linejoin="round"/>
</svg>
