<svg width="20" height="20" viewBox="0 0 20 20" fill="none" xmlns="http://www.w3.org/2000/svg">
<path d="M11.2501 9.99982H15.8335M15.904 10.2427L17.8498 16.055C18.0026 16.5116 18.0791 16.7399 18.0242 16.8805C17.9766 17.0026 17.8743 17.0952 17.7481 17.1304C17.6027 17.171 17.3831 17.0722 16.944 16.8746L3.0178 10.6078C2.58919 10.4149 2.37489 10.3185 2.30865 10.1845C2.25111 10.0681 2.25111 9.93155 2.30865 9.81516C2.37489 9.68119 2.58919 9.58475 3.0178 9.39188L16.9489 3.12293C17.3867 2.92593 17.6056 2.82742 17.7508 2.86783C17.8769 2.90292 17.9792 2.99524 18.027 3.11711C18.082 3.25744 18.0064 3.48526 17.8552 3.94088L15.9035 9.8211C15.8775 9.89935 15.8645 9.93848 15.8594 9.9785C15.8548 10.014 15.8549 10.05 15.8595 10.0855C15.8648 10.1255 15.8778 10.1646 15.904 10.2427Z" stroke="white" stroke-width="1.66667" stroke-linecap="round" stroke-linejoin="round"/>
</svg>
