<svg width="32" height="32" viewBox="0 0 32 32" fill="none" xmlns="http://www.w3.org/2000/svg">
<rect width="32" height="32" rx="16" fill="#1D2939"/>
<path d="M16.0003 12H16.007M13.867 22.6667H18.1337C19.2538 22.6667 19.8138 22.6667 20.2416 22.4487C20.618 22.2569 20.9239 21.951 21.1157 21.5747C21.3337 21.1468 21.3337 20.5868 21.3337 19.4667V12.5333C21.3337 11.4132 21.3337 10.8532 21.1157 10.4254C20.9239 10.049 20.618 9.74308 20.2416 9.55133C19.8138 9.33334 19.2538 9.33334 18.1337 9.33334H13.867C12.7469 9.33334 12.1868 9.33334 11.759 9.55133C11.3827 9.74308 11.0767 10.049 10.885 10.4254C10.667 10.8532 10.667 11.4132 10.667 12.5333V19.4667C10.667 20.5868 10.667 21.1468 10.885 21.5747C11.0767 21.951 11.3827 22.2569 11.759 22.4487C12.1868 22.6667 12.7469 22.6667 13.867 22.6667ZM16.3337 12C16.3337 12.1841 16.1844 12.3333 16.0003 12.3333C15.8162 12.3333 15.667 12.1841 15.667 12C15.667 11.8159 15.8162 11.6667 16.0003 11.6667C16.1844 11.6667 16.3337 11.8159 16.3337 12ZM18.667 17.3333C18.667 18.8061 17.4731 20 16.0003 20C14.5276 20 13.3337 18.8061 13.3337 17.3333C13.3337 15.8606 14.5276 14.6667 16.0003 14.6667C17.4731 14.6667 18.667 15.8606 18.667 17.3333Z" stroke="#D0D5DD" stroke-linecap="round" stroke-linejoin="round"/>
</svg>
