<svg width="32" height="32" viewBox="0 0 32 32" fill="none" xmlns="http://www.w3.org/2000/svg">
<rect width="32" height="32" rx="16" fill="#1D2939"/>
<path d="M16.0003 12H16.007M13.867 22.6667H18.1337C19.2538 22.6667 19.8138 22.6667 20.2416 22.4487C20.618 22.257 20.9239 21.951 21.1157 21.5747C21.3337 21.1469 21.3337 20.5868 21.3337 19.4667V12.5334C21.3337 11.4133 21.3337 10.8532 21.1157 10.4254C20.9239 10.0491 20.618 9.74311 20.2416 9.55136C19.8138 9.33337 19.2538 9.33337 18.1337 9.33337H13.867C12.7469 9.33337 12.1868 9.33337 11.759 9.55136C11.3827 9.74311 11.0767 10.0491 10.885 10.4254C10.667 10.8532 10.667 11.4133 10.667 12.5334V19.4667C10.667 20.5868 10.667 21.1469 10.885 21.5747C11.0767 21.951 11.3827 22.257 11.759 22.4487C12.1868 22.6667 12.7469 22.6667 13.867 22.6667ZM16.3337 12C16.3337 12.1841 16.1844 12.3334 16.0003 12.3334C15.8162 12.3334 15.667 12.1841 15.667 12C15.667 11.8159 15.8162 11.6667 16.0003 11.6667C16.1844 11.6667 16.3337 11.8159 16.3337 12ZM18.667 17.3334C18.667 18.8061 17.4731 20 16.0003 20C14.5276 20 13.3337 18.8061 13.3337 17.3334C13.3337 15.8606 14.5276 14.6667 16.0003 14.6667C17.4731 14.6667 18.667 15.8606 18.667 17.3334Z" stroke="#D0D5DD" stroke-linecap="round" stroke-linejoin="round"/>
</svg>
