<svg width="22" height="20" viewBox="0 0 22 20" fill="none" xmlns="http://www.w3.org/2000/svg">
<path d="M10.4506 1.82368C10.6811 1.35674 10.7963 1.12327 10.9528 1.04868C11.0889 0.983775 11.2471 0.983775 11.3832 1.04868C11.5396 1.12327 11.6549 1.35674 11.8854 1.82368L14.072 6.25364C14.1401 6.3915 14.1741 6.46042 14.2238 6.51394C14.2678 6.56132 14.3206 6.59971 14.3793 6.62698C14.4455 6.65778 14.5216 6.6689 14.6737 6.69113L19.565 7.40607C20.08 7.48135 20.3376 7.519 20.4568 7.6448C20.5604 7.75425 20.6092 7.90466 20.5895 8.05414C20.5668 8.22594 20.3803 8.40754 20.0074 8.77074L16.4694 12.2168C16.3591 12.3242 16.304 12.3779 16.2684 12.4418C16.2369 12.4984 16.2167 12.5606 16.2089 12.6249C16.2001 12.6975 16.2131 12.7734 16.2391 12.9251L17.0739 17.7925C17.162 18.3059 17.206 18.5625 17.1233 18.7149C17.0513 18.8474 16.9233 18.9403 16.775 18.9678C16.6046 18.9994 16.3741 18.8782 15.9131 18.6358L11.5403 16.3362C11.4041 16.2645 11.336 16.2287 11.2642 16.2146C11.2007 16.2022 11.1353 16.2022 11.0718 16.2146C11 16.2287 10.9319 16.2645 10.7956 16.3362L6.42289 18.6358C5.96188 18.8782 5.73138 18.9994 5.56094 18.9678C5.41265 18.9403 5.28469 18.8474 5.21271 18.7149C5.12997 18.5625 5.17399 18.3058 5.26204 17.7925L6.09685 12.9251C6.12288 12.7734 6.13589 12.6975 6.12709 12.6249C6.11929 12.5606 6.09908 12.4984 6.06757 12.4418C6.03199 12.3779 5.97685 12.3242 5.86655 12.2168L2.32853 8.77074C1.95563 8.40754 1.76918 8.22594 1.7465 8.05414C1.72675 7.90466 1.77552 7.75425 1.87922 7.6448C1.9984 7.519 2.25594 7.48135 2.77101 7.40607L7.66228 6.69113C7.81439 6.6689 7.89045 6.65778 7.95669 6.62698C8.01533 6.59971 8.06813 6.56132 8.11215 6.51394C8.16188 6.46042 8.1959 6.3915 8.26394 6.25364L10.4506 1.82368Z" stroke="#555962" stroke-width="2" stroke-linecap="round" stroke-linejoin="round"/>
</svg>
