<svg width="20" height="20" viewBox="0 0 20 20" fill="none" xmlns="http://www.w3.org/2000/svg">
<g clip-path="url(#clip0_2_20565)">
<path d="M10 0C15.5228 0 20 4.47715 20 10C20 15.5228 15.5228 20 10 20C4.47715 20 0 15.5228 0 10C0 4.47715 4.47715 0 10 0ZM14.0889 6.02051C13.7127 6.02713 13.1355 6.22772 10.3584 7.38281C9.3857 7.78739 7.44143 8.62449 4.52637 9.89453C4.05316 10.0827 3.80577 10.2672 3.7832 10.4473C3.74007 10.7928 4.23724 10.9 4.86328 11.1035C5.37386 11.2695 6.06092 11.464 6.41797 11.4717C6.74174 11.4786 7.10302 11.3452 7.50195 11.0713C10.2257 9.23267 11.6324 8.30324 11.7207 8.2832C11.783 8.26908 11.8694 8.25183 11.9277 8.30371C11.9858 8.35577 11.9798 8.45412 11.9736 8.48047C11.9209 8.6942 9.36591 11.019 9.21875 11.1719C8.65616 11.7562 8.01613 12.1132 9.00293 12.7637C9.85709 13.3265 10.3546 13.6859 11.2344 14.2627C11.7968 14.6314 12.2386 15.0691 12.8193 15.0156C13.0864 14.9908 13.3618 14.7392 13.502 13.9902C13.8332 12.2192 14.4853 8.38199 14.6357 6.80078C14.6489 6.66227 14.6315 6.48502 14.6182 6.40723C14.6049 6.32949 14.5774 6.21875 14.4766 6.13672C14.3568 6.03955 14.1717 6.01907 14.0889 6.02051Z" fill="#CECFD2"/>
</g>
<defs>
<clipPath id="clip0_2_20565">
<rect width="20" height="20" fill="white"/>
</clipPath>
</defs>
</svg>
